M48
; DRILL file {KiCad 5.1.6-c6e7f7d~87~ubuntu18.04.1} date Tue Jul 14 12:11:10 2020
; FORMAT={-:-/ absolute / metric / decimal}
; #@! TF.CreationDate,2020-07-14T12:11:10+09:00
; #@! TF.GenerationSoftware,Kicad,Pcbnew,5.1.6-c6e7f7d~87~ubuntu18.04.1
; #@! TF.FileFunction,Plated,1,2,PTH
FMAT,2
METRIC
T1C0.800
T2C1.000
T3C1.500
%
G90
G05
T1
X57.78Y44.45
X57.78Y39.45
X20.696Y34.036
X20.696Y23.876
X43.81Y33.02
X43.81Y30.52
X37.46Y44.41
X37.46Y41.91
X53.97Y44.45
X53.97Y39.45
X32.38Y19.05
X42.54Y19.05
X47.62Y21.59
X57.78Y21.59
X66.67Y30.48
X66.67Y27.98
X62.86Y30.48
X62.86Y27.94
X47.62Y15.494
X47.62Y5.334
X25.73Y8.38
X28.27Y16.0
X28.27Y3.3
X51.73Y8.38
X54.27Y16.0
X54.27Y3.3
X47.62Y33.02
X47.62Y30.48
X62.86Y24.765
X73.02Y24.765
X37.46Y36.83
X37.46Y34.33
X51.43Y33.02
X51.43Y30.48
X51.43Y27.94
X51.43Y25.4
X59.05Y33.02
X59.05Y30.48
X59.05Y27.94
X59.05Y25.4
X51.43Y36.83
X61.59Y36.83
X37.46Y25.4
X47.62Y25.4
X65.4Y36.83
X67.9Y36.83
X60.955Y21.59
X60.955Y11.43
T2
X7.996Y39.116
X7.996Y36.576
X10.536Y39.116
X10.536Y36.576
X13.076Y39.116
X13.076Y36.576
X15.616Y39.116
X15.616Y36.576
X18.156Y39.116
X18.156Y36.576
X20.696Y39.116
X20.696Y36.576
X23.236Y39.116
X23.236Y36.576
X25.776Y39.116
X25.776Y36.576
X37.46Y14.08
X37.46Y9.0
X40.0Y14.08
X42.54Y14.08
X42.54Y9.0
X74.29Y35.48
X74.29Y32.98
X74.29Y30.48
X5.71Y22.86
X5.71Y20.36
T3
X4.95Y9.9
X10.0Y2.1
X14.55Y5.4
X64.95Y9.9
X70.0Y2.1
X74.55Y5.4
T0
M30
