G04 #@! TF.GenerationSoftware,KiCad,Pcbnew,5.1.6-c6e7f7d~87~ubuntu18.04.1*
G04 #@! TF.CreationDate,2020-07-14T12:11:00+09:00*
G04 #@! TF.ProjectId,pcb_main,7063625f-6d61-4696-9e2e-6b696361645f,rev?*
G04 #@! TF.SameCoordinates,PX4339790PY76b1be0*
G04 #@! TF.FileFunction,Copper,L2,Bot*
G04 #@! TF.FilePolarity,Positive*
%FSLAX46Y46*%
G04 Gerber Fmt 4.6, Leading zero omitted, Abs format (unit mm)*
G04 Created by KiCad (PCBNEW 5.1.6-c6e7f7d~87~ubuntu18.04.1) date 2020-07-14 12:11:00*
%MOMM*%
%LPD*%
G01*
G04 APERTURE LIST*
G04 #@! TA.AperFunction,ComponentPad*
%ADD10O,2.000000X3.000000*%
G04 #@! TD*
G04 #@! TA.AperFunction,ComponentPad*
%ADD11O,3.000000X3.000000*%
G04 #@! TD*
G04 #@! TA.AperFunction,ComponentPad*
%ADD12O,1.800000X1.800000*%
G04 #@! TD*
G04 #@! TA.AperFunction,ComponentPad*
%ADD13C,1.800000*%
G04 #@! TD*
G04 #@! TA.AperFunction,ComponentPad*
%ADD14O,3.000000X2.000000*%
G04 #@! TD*
G04 #@! TA.AperFunction,ComponentPad*
%ADD15R,1.800000X1.800000*%
G04 #@! TD*
G04 #@! TA.AperFunction,ComponentPad*
%ADD16R,2.000000X2.000000*%
G04 #@! TD*
G04 #@! TA.AperFunction,ComponentPad*
%ADD17O,2.000000X2.000000*%
G04 #@! TD*
G04 #@! TA.AperFunction,ComponentPad*
%ADD18R,2.800000X1.800000*%
G04 #@! TD*
G04 #@! TA.AperFunction,ComponentPad*
%ADD19O,2.800000X1.800000*%
G04 #@! TD*
G04 #@! TA.AperFunction,Conductor*
%ADD20C,0.500000*%
G04 #@! TD*
G04 #@! TA.AperFunction,Conductor*
%ADD21C,1.000000*%
G04 #@! TD*
G04 #@! TA.AperFunction,Conductor*
%ADD22C,0.300000*%
G04 #@! TD*
G04 APERTURE END LIST*
D10*
X42540000Y14080000D03*
X40000000Y14080000D03*
X37460000Y14080000D03*
X42540000Y9000000D03*
X37460000Y9000000D03*
D11*
X64950000Y9900000D03*
X74550000Y5400000D03*
X70000000Y2100000D03*
X4950000Y9900000D03*
X14550000Y5400000D03*
X10000000Y2100000D03*
D12*
X20696000Y34036000D03*
D13*
X20696000Y23876000D03*
X47620000Y5334000D03*
D12*
X47620000Y15494000D03*
G04 #@! TA.AperFunction,ComponentPad*
G36*
G01*
X75496000Y29480000D02*
X73084000Y29480000D01*
G75*
G02*
X72790000Y29774000I0J294000D01*
G01*
X72790000Y31186000D01*
G75*
G02*
X73084000Y31480000I294000J0D01*
G01*
X75496000Y31480000D01*
G75*
G02*
X75790000Y31186000I0J-294000D01*
G01*
X75790000Y29774000D01*
G75*
G02*
X75496000Y29480000I-294000J0D01*
G01*
G37*
G04 #@! TD.AperFunction*
D14*
X74290000Y32980000D03*
X74290000Y35480000D03*
D13*
X28270000Y16000000D03*
X25730000Y8380000D03*
X28270000Y3300000D03*
X54270000Y3300000D03*
X51730000Y8380000D03*
X54270000Y16000000D03*
X43810000Y33020000D03*
X43810000Y30520000D03*
X66670000Y27980000D03*
X66670000Y30480000D03*
D15*
X65400000Y36830000D03*
D13*
X67900000Y36830000D03*
X57780000Y39450000D03*
D12*
X57780000Y44450000D03*
X53970000Y44450000D03*
D13*
X53970000Y39450000D03*
D12*
X37460000Y44410000D03*
D15*
X37460000Y41910000D03*
X37460000Y34330000D03*
D13*
X37460000Y36830000D03*
D16*
X7996000Y36576000D03*
D17*
X7996000Y39116000D03*
X10536000Y36576000D03*
X10536000Y39116000D03*
X13076000Y36576000D03*
X13076000Y39116000D03*
X15616000Y36576000D03*
X15616000Y39116000D03*
X18156000Y36576000D03*
X18156000Y39116000D03*
X20696000Y36576000D03*
X20696000Y39116000D03*
X23236000Y36576000D03*
X23236000Y39116000D03*
X25776000Y36576000D03*
X25776000Y39116000D03*
G04 #@! TA.AperFunction,ComponentPad*
G36*
G01*
X4504000Y23860000D02*
X6916000Y23860000D01*
G75*
G02*
X7210000Y23566000I0J-294000D01*
G01*
X7210000Y22154000D01*
G75*
G02*
X6916000Y21860000I-294000J0D01*
G01*
X4504000Y21860000D01*
G75*
G02*
X4210000Y22154000I0J294000D01*
G01*
X4210000Y23566000D01*
G75*
G02*
X4504000Y23860000I294000J0D01*
G01*
G37*
G04 #@! TD.AperFunction*
D14*
X5710000Y20360000D03*
D13*
X47620000Y21590000D03*
D12*
X57780000Y21590000D03*
X60955000Y11430000D03*
D13*
X60955000Y21590000D03*
D12*
X47620000Y25400000D03*
X37460000Y25400000D03*
X73020000Y24765000D03*
X62860000Y24765000D03*
X42540000Y19050000D03*
D13*
X32380000Y19050000D03*
X47620000Y33020000D03*
D12*
X47620000Y30480000D03*
X62860000Y27940000D03*
D13*
X62860000Y30480000D03*
X61590000Y36830000D03*
D12*
X51430000Y36830000D03*
D18*
X51430000Y33020000D03*
D19*
X59050000Y25400000D03*
X51430000Y30480000D03*
X59050000Y27940000D03*
X51430000Y27940000D03*
X59050000Y30480000D03*
X51430000Y25400000D03*
X59050000Y33020000D03*
D20*
X51430000Y33020000D02*
X47620000Y33020000D01*
X47620000Y33020000D02*
X43810000Y33020000D01*
X51430000Y33020000D02*
X51430000Y36830000D01*
X47580000Y30520000D02*
X47620000Y30480000D01*
X43810000Y30520000D02*
X47580000Y30520000D01*
X47620000Y30480000D02*
X51430000Y30480000D01*
X43810000Y24130000D02*
X43810000Y30520000D01*
X40000000Y20320000D02*
X43810000Y24130000D01*
X40000000Y14080000D02*
X40000000Y20320000D01*
X59050000Y27940000D02*
X62860000Y27940000D01*
X66630000Y27940000D02*
X66670000Y27980000D01*
X62860000Y27940000D02*
X66630000Y27940000D01*
X54270000Y10920000D02*
X51730000Y8380000D01*
X54270000Y16000000D02*
X54270000Y10920000D01*
X55875000Y17605000D02*
X54270000Y16000000D01*
X55875000Y26670000D02*
X55875000Y17605000D01*
X57145000Y27940000D02*
X55875000Y26670000D01*
X59050000Y27940000D02*
X57145000Y27940000D01*
X25730000Y8380000D02*
X25730000Y13460000D01*
X25730000Y13460000D02*
X28270000Y16000000D01*
X25730000Y6142000D02*
X25730000Y8380000D01*
X46608000Y7112000D02*
X44576000Y5080000D01*
X26792000Y5080000D02*
X25730000Y6142000D01*
X44576000Y5080000D02*
X26792000Y5080000D01*
X50462000Y7112000D02*
X46608000Y7112000D01*
X51730000Y8380000D02*
X50462000Y7112000D01*
X59050000Y30480000D02*
X62860000Y30480000D01*
X62860000Y30480000D02*
X66670000Y30480000D01*
X74290000Y30480000D02*
X66670000Y30480000D01*
X61590000Y36830000D02*
X65400000Y36830000D01*
X69250000Y35480000D02*
X74290000Y35480000D01*
X67900000Y36830000D02*
X69250000Y35480000D01*
D21*
X18156000Y39116000D02*
X18156000Y36576000D01*
X37460000Y41910000D02*
X19045000Y41910000D01*
X18156000Y41021000D02*
X18156000Y39116000D01*
X19045000Y41910000D02*
X18156000Y41021000D01*
X56510000Y38180000D02*
X56510000Y33655000D01*
X57780000Y39450000D02*
X56510000Y38180000D01*
X57145000Y33020000D02*
X59050000Y33020000D01*
X56510000Y33655000D02*
X57145000Y33020000D01*
X57780000Y41148000D02*
X57780000Y39450000D01*
X57018000Y41910000D02*
X57780000Y41148000D01*
X53335000Y41910000D02*
X57018000Y41910000D01*
X40000000Y41275000D02*
X52700000Y41275000D01*
X37460000Y41910000D02*
X39365000Y41910000D01*
X39365000Y41910000D02*
X40000000Y41275000D01*
X52700000Y41275000D02*
X53335000Y41910000D01*
X7996000Y39116000D02*
X7996000Y36576000D01*
X53970000Y26035000D02*
X53970000Y39370000D01*
X51430000Y25400000D02*
X53335000Y25400000D01*
X53335000Y25400000D02*
X53970000Y26035000D01*
X37460000Y39370000D02*
X37460000Y36830000D01*
X53970000Y39370000D02*
X37460000Y39370000D01*
X8885000Y34290000D02*
X7996000Y35179000D01*
X17140000Y34290000D02*
X8885000Y34290000D01*
X19680000Y31750000D02*
X17140000Y34290000D01*
X7996000Y35179000D02*
X7996000Y36576000D01*
X24125000Y34290000D02*
X21585000Y31750000D01*
X27935000Y38100000D02*
X27935000Y34925000D01*
X27300000Y34290000D02*
X24125000Y34290000D01*
X21585000Y31750000D02*
X19680000Y31750000D01*
X27935000Y34925000D02*
X27300000Y34290000D01*
X29205000Y39370000D02*
X27935000Y38100000D01*
X37460000Y39370000D02*
X29205000Y39370000D01*
D20*
X57780000Y21590000D02*
X57780000Y13970000D01*
X14550000Y2971000D02*
X14550000Y5400000D01*
X55659011Y1689011D02*
X15831989Y1689011D01*
X57780000Y3810000D02*
X55659011Y1689011D01*
X15831989Y1689011D02*
X14550000Y2971000D01*
X57780000Y13970000D02*
X57780000Y3810000D01*
X66742000Y13208000D02*
X57780000Y13208000D01*
X74550000Y5400000D02*
X66742000Y13208000D01*
X64950000Y9900000D02*
X63420000Y11430000D01*
X63420000Y11430000D02*
X60955000Y11430000D01*
X6449999Y8400001D02*
X4950000Y9900000D01*
X7977999Y8400001D02*
X6449999Y8400001D01*
X15489000Y889000D02*
X7977999Y8400001D01*
X55990386Y889000D02*
X15489000Y889000D01*
X58605500Y3504114D02*
X55990386Y889000D01*
X58605500Y10350500D02*
X58605500Y3504114D01*
X59685000Y11430000D02*
X58605500Y10350500D01*
X60955000Y11430000D02*
X59685000Y11430000D01*
D21*
X20696000Y39116000D02*
X20696000Y36576000D01*
X20696000Y36576000D02*
X20696000Y34036000D01*
D20*
X47620000Y25400000D02*
X47620000Y27305000D01*
X48255000Y27940000D02*
X51430000Y27940000D01*
X47620000Y27305000D02*
X48255000Y27940000D01*
X47620000Y25400000D02*
X47620000Y21590000D01*
X62860000Y24765000D02*
X61590000Y24765000D01*
X61590000Y24765000D02*
X60955000Y24765000D01*
X60955000Y21590000D02*
X60955000Y24765000D01*
X60637500Y25400000D02*
X59050000Y25400000D01*
X60955000Y25082500D02*
X60637500Y25400000D01*
X60955000Y24765000D02*
X60955000Y25082500D01*
X47620000Y15494000D02*
X43626000Y11500000D01*
X43626000Y11500000D02*
X38000000Y11500000D01*
X37460000Y12040000D02*
X37460000Y14080000D01*
X38000000Y11500000D02*
X37460000Y12040000D01*
X42540000Y14080000D02*
X42540000Y19050000D01*
X49654000Y3300000D02*
X47620000Y5334000D01*
X54270000Y3300000D02*
X49654000Y3300000D01*
X26286000Y3300000D02*
X28270000Y3300000D01*
X32380000Y19050000D02*
X31110000Y17780000D01*
X23998000Y14478000D02*
X23998000Y5588000D01*
X23998000Y5588000D02*
X26286000Y3300000D01*
X27300000Y17780000D02*
X23998000Y14478000D01*
X31110000Y17780000D02*
X27300000Y17780000D01*
X17180000Y20360000D02*
X20696000Y23876000D01*
X5710000Y20360000D02*
X17180000Y20360000D01*
D22*
G36*
X79025000Y975000D02*
G01*
X72163282Y975000D01*
X72264966Y1165951D01*
X72402176Y1618286D01*
X72210239Y2000000D01*
X70100000Y2000000D01*
X70100000Y1980000D01*
X69900000Y1980000D01*
X69900000Y2000000D01*
X67789761Y2000000D01*
X67597824Y1618286D01*
X67735034Y1165951D01*
X67836718Y975000D01*
X57773442Y975000D01*
X59380156Y2581714D01*
X67597824Y2581714D01*
X67789761Y2200000D01*
X69900000Y2200000D01*
X69900000Y4310461D01*
X70100000Y4310461D01*
X70100000Y2200000D01*
X72210239Y2200000D01*
X72402176Y2581714D01*
X72264966Y3034049D01*
X72039221Y3457974D01*
X71735110Y3829713D01*
X71364320Y4134980D01*
X70941100Y4362044D01*
X70481714Y4502179D01*
X70100000Y4310461D01*
X69900000Y4310461D01*
X69518286Y4502179D01*
X69058900Y4362044D01*
X68635680Y4134980D01*
X68264890Y3829713D01*
X67960779Y3457974D01*
X67735034Y3034049D01*
X67597824Y2581714D01*
X59380156Y2581714D01*
X59412340Y2613898D01*
X59458134Y2651480D01*
X59608091Y2834204D01*
X59719519Y3042672D01*
X59788137Y3268873D01*
X59805500Y3445164D01*
X59811306Y3504114D01*
X59805500Y3563064D01*
X59805500Y9853444D01*
X59877226Y9925170D01*
X60078697Y9790552D01*
X60415375Y9651095D01*
X60772791Y9580000D01*
X61137209Y9580000D01*
X61494625Y9651095D01*
X61831303Y9790552D01*
X62134306Y9993011D01*
X62371295Y10230000D01*
X62517643Y10230000D01*
X62500000Y10141304D01*
X62500000Y9658696D01*
X62594152Y9185361D01*
X62778838Y8739490D01*
X63046960Y8338216D01*
X63388216Y7996960D01*
X63789490Y7728838D01*
X64235361Y7544152D01*
X64708696Y7450000D01*
X65191304Y7450000D01*
X65664639Y7544152D01*
X66110510Y7728838D01*
X66511784Y7996960D01*
X66853040Y8338216D01*
X67121162Y8739490D01*
X67305848Y9185361D01*
X67400000Y9658696D01*
X67400000Y10141304D01*
X67305848Y10614639D01*
X67121162Y11060510D01*
X66977645Y11275299D01*
X72184886Y6068058D01*
X72100000Y5641304D01*
X72100000Y5158696D01*
X72194152Y4685361D01*
X72378838Y4239490D01*
X72646960Y3838216D01*
X72988216Y3496960D01*
X73389490Y3228838D01*
X73835361Y3044152D01*
X74308696Y2950000D01*
X74791304Y2950000D01*
X75264639Y3044152D01*
X75710510Y3228838D01*
X76111784Y3496960D01*
X76453040Y3838216D01*
X76721162Y4239490D01*
X76905848Y4685361D01*
X77000000Y5158696D01*
X77000000Y5641304D01*
X76905848Y6114639D01*
X76721162Y6560510D01*
X76453040Y6961784D01*
X76111784Y7303040D01*
X75710510Y7571162D01*
X75264639Y7755848D01*
X74791304Y7850000D01*
X74308696Y7850000D01*
X73881942Y7765114D01*
X67632216Y14014840D01*
X67594634Y14060634D01*
X67411910Y14210591D01*
X67203442Y14322019D01*
X66977241Y14390637D01*
X66800950Y14408000D01*
X66800947Y14408000D01*
X66742000Y14413806D01*
X66683053Y14408000D01*
X58980000Y14408000D01*
X58980000Y20173705D01*
X59216989Y20410694D01*
X59367500Y20635951D01*
X59518011Y20410694D01*
X59775694Y20153011D01*
X60078697Y19950552D01*
X60415375Y19811095D01*
X60772791Y19740000D01*
X61137209Y19740000D01*
X61494625Y19811095D01*
X61831303Y19950552D01*
X62134306Y20153011D01*
X62391989Y20410694D01*
X62594448Y20713697D01*
X62733905Y21050375D01*
X62805000Y21407791D01*
X62805000Y21772209D01*
X62733905Y22129625D01*
X62594448Y22466303D01*
X62391989Y22769306D01*
X62155000Y23006295D01*
X62155000Y23054596D01*
X62320375Y22986095D01*
X62677791Y22915000D01*
X63042209Y22915000D01*
X63399625Y22986095D01*
X63736303Y23125552D01*
X64039306Y23328011D01*
X64296989Y23585694D01*
X64499448Y23888697D01*
X64638905Y24225375D01*
X64669115Y24377251D01*
X71211092Y24377251D01*
X71300523Y24082426D01*
X71466726Y23760088D01*
X71692620Y23476368D01*
X71969525Y23242170D01*
X72286799Y23066493D01*
X72632250Y22956089D01*
X72920000Y23155202D01*
X72920000Y24665000D01*
X73120000Y24665000D01*
X73120000Y23155202D01*
X73407750Y22956089D01*
X73753201Y23066493D01*
X74070475Y23242170D01*
X74347380Y23476368D01*
X74573274Y23760088D01*
X74739477Y24082426D01*
X74828908Y24377251D01*
X74629396Y24665000D01*
X73120000Y24665000D01*
X72920000Y24665000D01*
X71410604Y24665000D01*
X71211092Y24377251D01*
X64669115Y24377251D01*
X64710000Y24582791D01*
X64710000Y24947209D01*
X64669116Y25152749D01*
X71211092Y25152749D01*
X71410604Y24865000D01*
X72920000Y24865000D01*
X72920000Y26374798D01*
X73120000Y26374798D01*
X73120000Y24865000D01*
X74629396Y24865000D01*
X74828908Y25152749D01*
X74739477Y25447574D01*
X74573274Y25769912D01*
X74347380Y26053632D01*
X74070475Y26287830D01*
X73753201Y26463507D01*
X73407750Y26573911D01*
X73120000Y26374798D01*
X72920000Y26374798D01*
X72632250Y26573911D01*
X72286799Y26463507D01*
X71969525Y26287830D01*
X71692620Y26053632D01*
X71466726Y25769912D01*
X71300523Y25447574D01*
X71211092Y25152749D01*
X64669116Y25152749D01*
X64638905Y25304625D01*
X64499448Y25641303D01*
X64296989Y25944306D01*
X64039306Y26201989D01*
X63814049Y26352500D01*
X64039306Y26503011D01*
X64276295Y26740000D01*
X65293705Y26740000D01*
X65490694Y26543011D01*
X65793697Y26340552D01*
X66130375Y26201095D01*
X66487791Y26130000D01*
X66852209Y26130000D01*
X67209625Y26201095D01*
X67546303Y26340552D01*
X67849306Y26543011D01*
X68106989Y26800694D01*
X68309448Y27103697D01*
X68448905Y27440375D01*
X68520000Y27797791D01*
X68520000Y28162209D01*
X68448905Y28519625D01*
X68309448Y28856303D01*
X68106989Y29159306D01*
X68036295Y29230000D01*
X68086295Y29280000D01*
X71939098Y29280000D01*
X72045830Y29080317D01*
X72201109Y28891109D01*
X72390317Y28735830D01*
X72606183Y28620448D01*
X72840411Y28549395D01*
X73084000Y28525404D01*
X75496000Y28525404D01*
X75739589Y28549395D01*
X75973817Y28620448D01*
X76189683Y28735830D01*
X76378891Y28891109D01*
X76534170Y29080317D01*
X76649552Y29296183D01*
X76720605Y29530411D01*
X76744596Y29774000D01*
X76744596Y31186000D01*
X76720605Y31429589D01*
X76649552Y31663817D01*
X76534170Y31879683D01*
X76460761Y31969132D01*
X76600282Y32230157D01*
X76711785Y32597733D01*
X76749435Y32980000D01*
X76711785Y33362267D01*
X76600282Y33729843D01*
X76419211Y34068604D01*
X76286757Y34230000D01*
X76419211Y34391396D01*
X76600282Y34730157D01*
X76711785Y35097733D01*
X76749435Y35480000D01*
X76711785Y35862267D01*
X76600282Y36229843D01*
X76419211Y36568604D01*
X76175530Y36865530D01*
X75878604Y37109211D01*
X75539843Y37290282D01*
X75172267Y37401785D01*
X74885795Y37430000D01*
X73694205Y37430000D01*
X73407733Y37401785D01*
X73040157Y37290282D01*
X72701396Y37109211D01*
X72404470Y36865530D01*
X72252209Y36680000D01*
X69750000Y36680000D01*
X69750000Y37012209D01*
X69678905Y37369625D01*
X69539448Y37706303D01*
X69336989Y38009306D01*
X69079306Y38266989D01*
X68776303Y38469448D01*
X68439625Y38608905D01*
X68082209Y38680000D01*
X67717791Y38680000D01*
X67360375Y38608905D01*
X67023697Y38469448D01*
X66953569Y38422590D01*
X66830345Y38523718D01*
X66665308Y38611932D01*
X66486232Y38666254D01*
X66300000Y38684596D01*
X64500000Y38684596D01*
X64313768Y38666254D01*
X64134692Y38611932D01*
X63969655Y38523718D01*
X63824999Y38405001D01*
X63706282Y38260345D01*
X63618068Y38095308D01*
X63598257Y38030000D01*
X63006295Y38030000D01*
X62769306Y38266989D01*
X62466303Y38469448D01*
X62129625Y38608905D01*
X61772209Y38680000D01*
X61407791Y38680000D01*
X61050375Y38608905D01*
X60713697Y38469448D01*
X60410694Y38266989D01*
X60153011Y38009306D01*
X59950552Y37706303D01*
X59811095Y37369625D01*
X59740000Y37012209D01*
X59740000Y36647791D01*
X59811095Y36290375D01*
X59950552Y35953697D01*
X60153011Y35650694D01*
X60410694Y35393011D01*
X60713697Y35190552D01*
X61050375Y35051095D01*
X61407791Y34980000D01*
X61772209Y34980000D01*
X62129625Y35051095D01*
X62466303Y35190552D01*
X62769306Y35393011D01*
X63006295Y35630000D01*
X63598257Y35630000D01*
X63618068Y35564692D01*
X63706282Y35399655D01*
X63824999Y35254999D01*
X63969655Y35136282D01*
X64134692Y35048068D01*
X64313768Y34993746D01*
X64500000Y34975404D01*
X66300000Y34975404D01*
X66486232Y34993746D01*
X66665308Y35048068D01*
X66830345Y35136282D01*
X66953569Y35237410D01*
X67023697Y35190552D01*
X67360375Y35051095D01*
X67717791Y34980000D01*
X68052944Y34980000D01*
X68359784Y34673160D01*
X68397366Y34627366D01*
X68580090Y34477409D01*
X68788558Y34365981D01*
X69014759Y34297363D01*
X69191050Y34280000D01*
X69191052Y34280000D01*
X69249999Y34274194D01*
X69308946Y34280000D01*
X72252209Y34280000D01*
X72293243Y34230000D01*
X72160789Y34068604D01*
X71979718Y33729843D01*
X71868215Y33362267D01*
X71830565Y32980000D01*
X71868215Y32597733D01*
X71979718Y32230157D01*
X72119239Y31969132D01*
X72045830Y31879683D01*
X71939098Y31680000D01*
X68086295Y31680000D01*
X67849306Y31916989D01*
X67546303Y32119448D01*
X67209625Y32258905D01*
X66852209Y32330000D01*
X66487791Y32330000D01*
X66130375Y32258905D01*
X65793697Y32119448D01*
X65490694Y31916989D01*
X65253705Y31680000D01*
X64276295Y31680000D01*
X64039306Y31916989D01*
X63736303Y32119448D01*
X63399625Y32258905D01*
X63042209Y32330000D01*
X62677791Y32330000D01*
X62320375Y32258905D01*
X61983697Y32119448D01*
X61680694Y31916989D01*
X61443705Y31680000D01*
X60958426Y31680000D01*
X60900978Y31750000D01*
X61095661Y31987222D01*
X61267447Y32308610D01*
X61373232Y32657337D01*
X61408951Y33020000D01*
X61373232Y33382663D01*
X61267447Y33731390D01*
X61095661Y34052778D01*
X60864477Y34334477D01*
X60582778Y34565661D01*
X60261390Y34737447D01*
X59912663Y34843232D01*
X59640882Y34870000D01*
X58459118Y34870000D01*
X58187337Y34843232D01*
X57960000Y34774270D01*
X57960000Y37579391D01*
X57985178Y37604569D01*
X58319625Y37671095D01*
X58656303Y37810552D01*
X58959306Y38013011D01*
X59216989Y38270694D01*
X59419448Y38573697D01*
X59558905Y38910375D01*
X59630000Y39267791D01*
X59630000Y39632209D01*
X59558905Y39989625D01*
X59419448Y40326303D01*
X59230000Y40609834D01*
X59230000Y41076783D01*
X59237014Y41148000D01*
X59230000Y41219217D01*
X59230000Y41219225D01*
X59209019Y41432250D01*
X59126106Y41705576D01*
X58991464Y41957474D01*
X58810264Y42178265D01*
X58754939Y42223669D01*
X58298005Y42680603D01*
X58462574Y42730523D01*
X58784912Y42896726D01*
X59068632Y43122620D01*
X59302830Y43399525D01*
X59478507Y43716799D01*
X59588911Y44062250D01*
X59389798Y44350000D01*
X57880000Y44350000D01*
X57880000Y44330000D01*
X57680000Y44330000D01*
X57680000Y44350000D01*
X56170202Y44350000D01*
X55971089Y44062250D01*
X56081493Y43716799D01*
X56257170Y43399525D01*
X56290599Y43360000D01*
X55459401Y43360000D01*
X55492830Y43399525D01*
X55668507Y43716799D01*
X55778911Y44062250D01*
X55579798Y44350000D01*
X54070000Y44350000D01*
X54070000Y44330000D01*
X53870000Y44330000D01*
X53870000Y44350000D01*
X52360202Y44350000D01*
X52161089Y44062250D01*
X52271493Y43716799D01*
X52447170Y43399525D01*
X52633523Y43179190D01*
X52525526Y43121464D01*
X52304735Y42940265D01*
X52259326Y42884934D01*
X52099392Y42725000D01*
X40600609Y42725000D01*
X40440671Y42884938D01*
X40395265Y42940265D01*
X40174474Y43121464D01*
X39922576Y43256106D01*
X39649250Y43339019D01*
X39436225Y43360000D01*
X39436215Y43360000D01*
X39365000Y43367014D01*
X39293785Y43360000D01*
X39137587Y43360000D01*
X39045335Y43472409D01*
X39158507Y43676799D01*
X39268911Y44022250D01*
X39069798Y44310000D01*
X37560000Y44310000D01*
X37560000Y44290000D01*
X37360000Y44290000D01*
X37360000Y44310000D01*
X35850202Y44310000D01*
X35651089Y44022250D01*
X35761493Y43676799D01*
X35874665Y43472409D01*
X35782413Y43360000D01*
X19116217Y43360000D01*
X19045000Y43367014D01*
X18973783Y43360000D01*
X18973775Y43360000D01*
X18760750Y43339019D01*
X18487424Y43256106D01*
X18235526Y43121464D01*
X18014735Y42940265D01*
X17969330Y42884939D01*
X17181057Y42096666D01*
X17125735Y42051264D01*
X16944536Y41830473D01*
X16809894Y41578575D01*
X16726981Y41305249D01*
X16706000Y41092224D01*
X16706000Y41092215D01*
X16698986Y41021000D01*
X16706000Y40949785D01*
X16706000Y40729286D01*
X16679772Y40750288D01*
X16340498Y40926417D01*
X16019415Y41023814D01*
X15716000Y40825578D01*
X15716000Y39216000D01*
X15736000Y39216000D01*
X15736000Y39016000D01*
X15716000Y39016000D01*
X15716000Y36676000D01*
X15736000Y36676000D01*
X15736000Y36476000D01*
X15716000Y36476000D01*
X15716000Y36456000D01*
X15516000Y36456000D01*
X15516000Y36476000D01*
X13176000Y36476000D01*
X13176000Y36456000D01*
X12976000Y36456000D01*
X12976000Y36476000D01*
X10636000Y36476000D01*
X10636000Y36456000D01*
X10436000Y36456000D01*
X10436000Y36476000D01*
X10416000Y36476000D01*
X10416000Y36676000D01*
X10436000Y36676000D01*
X10436000Y39016000D01*
X10636000Y39016000D01*
X10636000Y36676000D01*
X12976000Y36676000D01*
X12976000Y39016000D01*
X13176000Y39016000D01*
X13176000Y36676000D01*
X15516000Y36676000D01*
X15516000Y39016000D01*
X13176000Y39016000D01*
X12976000Y39016000D01*
X10636000Y39016000D01*
X10436000Y39016000D01*
X10416000Y39016000D01*
X10416000Y39216000D01*
X10436000Y39216000D01*
X10436000Y40825578D01*
X10636000Y40825578D01*
X10636000Y39216000D01*
X12976000Y39216000D01*
X12976000Y40825578D01*
X13176000Y40825578D01*
X13176000Y39216000D01*
X15516000Y39216000D01*
X15516000Y40825578D01*
X15212585Y41023814D01*
X14891502Y40926417D01*
X14552228Y40750288D01*
X14346000Y40585154D01*
X14139772Y40750288D01*
X13800498Y40926417D01*
X13479415Y41023814D01*
X13176000Y40825578D01*
X12976000Y40825578D01*
X12672585Y41023814D01*
X12351502Y40926417D01*
X12012228Y40750288D01*
X11806000Y40585154D01*
X11599772Y40750288D01*
X11260498Y40926417D01*
X10939415Y41023814D01*
X10636000Y40825578D01*
X10436000Y40825578D01*
X10132585Y41023814D01*
X9811502Y40926417D01*
X9472228Y40750288D01*
X9276308Y40593408D01*
X9239052Y40630664D01*
X8919671Y40844067D01*
X8564794Y40991062D01*
X8188058Y41066000D01*
X7803942Y41066000D01*
X7427206Y40991062D01*
X7072329Y40844067D01*
X6752948Y40630664D01*
X6481336Y40359052D01*
X6267933Y40039671D01*
X6120938Y39684794D01*
X6046000Y39308058D01*
X6046000Y38923942D01*
X6120938Y38547206D01*
X6267933Y38192329D01*
X6270139Y38189028D01*
X6202282Y38106345D01*
X6114068Y37941308D01*
X6059746Y37762232D01*
X6041404Y37576000D01*
X6041404Y35576000D01*
X6059746Y35389768D01*
X6114068Y35210692D01*
X6202282Y35045655D01*
X6320999Y34900999D01*
X6465655Y34782282D01*
X6627309Y34695876D01*
X6649894Y34621425D01*
X6737787Y34456989D01*
X6784536Y34369527D01*
X6908720Y34218209D01*
X6965735Y34148736D01*
X7021057Y34103334D01*
X7809330Y33315061D01*
X7854735Y33259735D01*
X8075526Y33078536D01*
X8327424Y32943894D01*
X8600750Y32860981D01*
X8813775Y32840000D01*
X8813783Y32840000D01*
X8885000Y32832986D01*
X8956217Y32840000D01*
X16539391Y32840000D01*
X18604334Y30775056D01*
X18649735Y30719735D01*
X18705055Y30674335D01*
X18705058Y30674332D01*
X18719830Y30662209D01*
X18870526Y30538536D01*
X19122424Y30403894D01*
X19395750Y30320981D01*
X19608775Y30300000D01*
X19608784Y30300000D01*
X19679999Y30292986D01*
X19751214Y30300000D01*
X21513785Y30300000D01*
X21585000Y30292986D01*
X21656215Y30300000D01*
X21656225Y30300000D01*
X21869250Y30320981D01*
X22142576Y30403894D01*
X22394474Y30538536D01*
X22615265Y30719735D01*
X22660670Y30775061D01*
X24725610Y32840000D01*
X27228785Y32840000D01*
X27300000Y32832986D01*
X27371215Y32840000D01*
X27371225Y32840000D01*
X27584250Y32860981D01*
X27857576Y32943894D01*
X28109474Y33078536D01*
X28330265Y33259735D01*
X28375671Y33315062D01*
X28490608Y33430000D01*
X35605403Y33430000D01*
X35623745Y33243767D01*
X35678067Y33064692D01*
X35766282Y32899654D01*
X35884998Y32754998D01*
X36029654Y32636282D01*
X36194692Y32548067D01*
X36373767Y32493745D01*
X36560000Y32475403D01*
X37122500Y32480000D01*
X37360000Y32717500D01*
X37360000Y34230000D01*
X37560000Y34230000D01*
X37560000Y32717500D01*
X37797500Y32480000D01*
X38360000Y32475403D01*
X38546233Y32493745D01*
X38725308Y32548067D01*
X38890346Y32636282D01*
X39035002Y32754998D01*
X39153718Y32899654D01*
X39241933Y33064692D01*
X39296255Y33243767D01*
X39314597Y33430000D01*
X39310000Y33992500D01*
X39072500Y34230000D01*
X37560000Y34230000D01*
X37360000Y34230000D01*
X35847500Y34230000D01*
X35610000Y33992500D01*
X35605403Y33430000D01*
X28490608Y33430000D01*
X28909934Y33849326D01*
X28965265Y33894735D01*
X29146464Y34115526D01*
X29281106Y34367424D01*
X29364019Y34640750D01*
X29385000Y34853775D01*
X29392015Y34925000D01*
X29385000Y34996225D01*
X29385000Y37499391D01*
X29805610Y37920000D01*
X35963339Y37920000D01*
X35820552Y37706303D01*
X35681095Y37369625D01*
X35610000Y37012209D01*
X35610000Y36647791D01*
X35681095Y36290375D01*
X35820552Y35953697D01*
X35867409Y35883570D01*
X35766282Y35760346D01*
X35678067Y35595308D01*
X35623745Y35416233D01*
X35605403Y35230000D01*
X35610000Y34667500D01*
X35847500Y34430000D01*
X37360000Y34430000D01*
X37360000Y34450000D01*
X37560000Y34450000D01*
X37560000Y34430000D01*
X39072500Y34430000D01*
X39310000Y34667500D01*
X39314597Y35230000D01*
X39296255Y35416233D01*
X39241933Y35595308D01*
X39153718Y35760346D01*
X39052591Y35883570D01*
X39099448Y35953697D01*
X39238905Y36290375D01*
X39310000Y36647791D01*
X39310000Y37012209D01*
X39238905Y37369625D01*
X39099448Y37706303D01*
X38956661Y37920000D01*
X49933339Y37920000D01*
X49790552Y37706303D01*
X49651095Y37369625D01*
X49580000Y37012209D01*
X49580000Y36647791D01*
X49651095Y36290375D01*
X49790552Y35953697D01*
X49993011Y35650694D01*
X50230001Y35413704D01*
X50230000Y34874596D01*
X50030000Y34874596D01*
X49843768Y34856254D01*
X49664692Y34801932D01*
X49499655Y34713718D01*
X49354999Y34595001D01*
X49236282Y34450345D01*
X49148068Y34285308D01*
X49128257Y34220000D01*
X49036295Y34220000D01*
X48799306Y34456989D01*
X48496303Y34659448D01*
X48159625Y34798905D01*
X47802209Y34870000D01*
X47437791Y34870000D01*
X47080375Y34798905D01*
X46743697Y34659448D01*
X46440694Y34456989D01*
X46203705Y34220000D01*
X45226295Y34220000D01*
X44989306Y34456989D01*
X44686303Y34659448D01*
X44349625Y34798905D01*
X43992209Y34870000D01*
X43627791Y34870000D01*
X43270375Y34798905D01*
X42933697Y34659448D01*
X42630694Y34456989D01*
X42373011Y34199306D01*
X42170552Y33896303D01*
X42031095Y33559625D01*
X41960000Y33202209D01*
X41960000Y32837791D01*
X42031095Y32480375D01*
X42170552Y32143697D01*
X42373011Y31840694D01*
X42443705Y31770000D01*
X42373011Y31699306D01*
X42170552Y31396303D01*
X42031095Y31059625D01*
X41960000Y30702209D01*
X41960000Y30337791D01*
X42031095Y29980375D01*
X42170552Y29643697D01*
X42373011Y29340694D01*
X42610001Y29103704D01*
X42610000Y24627056D01*
X39193155Y21210211D01*
X39147367Y21172634D01*
X39109790Y21126846D01*
X39109788Y21126844D01*
X38997409Y20989910D01*
X38885981Y20781441D01*
X38817364Y20555240D01*
X38794194Y20320000D01*
X38800001Y20261043D01*
X38800000Y16117790D01*
X38730001Y16060343D01*
X38548604Y16209211D01*
X38209843Y16390282D01*
X37842267Y16501785D01*
X37460000Y16539435D01*
X37077734Y16501785D01*
X36710158Y16390282D01*
X36371397Y16209211D01*
X36074471Y15965530D01*
X35830790Y15668604D01*
X35649718Y15329843D01*
X35538215Y14962267D01*
X35510000Y14675795D01*
X35510000Y13484206D01*
X35538215Y13197734D01*
X35649718Y12830158D01*
X35830789Y12491396D01*
X36074470Y12194470D01*
X36254830Y12046453D01*
X36254194Y12040000D01*
X36260000Y11981053D01*
X36260000Y11981051D01*
X36277363Y11804760D01*
X36335773Y11612209D01*
X36345981Y11578559D01*
X36457409Y11370090D01*
X36527353Y11284864D01*
X36572449Y11229913D01*
X36459786Y11176923D01*
X36151853Y10949569D01*
X35894192Y10666509D01*
X35696704Y10338621D01*
X35566978Y9978505D01*
X35510000Y9600000D01*
X35510000Y9100000D01*
X37360000Y9100000D01*
X37360000Y9120000D01*
X37560000Y9120000D01*
X37560000Y9100000D01*
X39410000Y9100000D01*
X39410000Y9600000D01*
X39353022Y9978505D01*
X39237209Y10300000D01*
X40762791Y10300000D01*
X40646978Y9978505D01*
X40590000Y9600000D01*
X40590000Y9100000D01*
X42440000Y9100000D01*
X42440000Y9120000D01*
X42640000Y9120000D01*
X42640000Y9100000D01*
X44490000Y9100000D01*
X44490000Y9600000D01*
X44433022Y9978505D01*
X44303296Y10338621D01*
X44229150Y10461725D01*
X44295910Y10497409D01*
X44478634Y10647366D01*
X44516216Y10693160D01*
X47467057Y13644000D01*
X47802209Y13644000D01*
X48159625Y13715095D01*
X48496303Y13854552D01*
X48799306Y14057011D01*
X49056989Y14314694D01*
X49259448Y14617697D01*
X49398905Y14954375D01*
X49470000Y15311791D01*
X49470000Y15676209D01*
X49398905Y16033625D01*
X49259448Y16370303D01*
X49056989Y16673306D01*
X48799306Y16930989D01*
X48496303Y17133448D01*
X48159625Y17272905D01*
X47802209Y17344000D01*
X47437791Y17344000D01*
X47080375Y17272905D01*
X46743697Y17133448D01*
X46440694Y16930989D01*
X46183011Y16673306D01*
X45980552Y16370303D01*
X45841095Y16033625D01*
X45770000Y15676209D01*
X45770000Y15341057D01*
X44490000Y14061056D01*
X44490000Y14675794D01*
X44461785Y14962266D01*
X44350282Y15329843D01*
X44169211Y15668604D01*
X43925530Y15965530D01*
X43740000Y16117791D01*
X43740000Y17633705D01*
X43976989Y17870694D01*
X44179448Y18173697D01*
X44318905Y18510375D01*
X44390000Y18867791D01*
X44390000Y19232209D01*
X44318905Y19589625D01*
X44179448Y19926303D01*
X43976989Y20229306D01*
X43719306Y20486989D01*
X43416303Y20689448D01*
X43079625Y20828905D01*
X42722209Y20900000D01*
X42357791Y20900000D01*
X42257009Y20879953D01*
X44616841Y23239785D01*
X44662634Y23277366D01*
X44812591Y23460090D01*
X44924019Y23668558D01*
X44992637Y23894759D01*
X45010000Y24071050D01*
X45010000Y24071051D01*
X45015806Y24130000D01*
X45010000Y24188950D01*
X45010000Y29103705D01*
X45226295Y29320000D01*
X46170111Y29320000D01*
X46183011Y29300694D01*
X46440694Y29043011D01*
X46743697Y28840552D01*
X47080375Y28701095D01*
X47279442Y28661498D01*
X46813156Y28195212D01*
X46767367Y28157634D01*
X46729790Y28111846D01*
X46729788Y28111844D01*
X46617409Y27974910D01*
X46505981Y27766441D01*
X46437364Y27540240D01*
X46414194Y27305000D01*
X46420001Y27246043D01*
X46420001Y26816296D01*
X46183011Y26579306D01*
X45980552Y26276303D01*
X45841095Y25939625D01*
X45770000Y25582209D01*
X45770000Y25217791D01*
X45841095Y24860375D01*
X45980552Y24523697D01*
X46183011Y24220694D01*
X46420000Y23983705D01*
X46420001Y23006296D01*
X46183011Y22769306D01*
X45980552Y22466303D01*
X45841095Y22129625D01*
X45770000Y21772209D01*
X45770000Y21407791D01*
X45841095Y21050375D01*
X45980552Y20713697D01*
X46183011Y20410694D01*
X46440694Y20153011D01*
X46743697Y19950552D01*
X47080375Y19811095D01*
X47437791Y19740000D01*
X47802209Y19740000D01*
X48159625Y19811095D01*
X48496303Y19950552D01*
X48799306Y20153011D01*
X49056989Y20410694D01*
X49259448Y20713697D01*
X49398905Y21050375D01*
X49470000Y21407791D01*
X49470000Y21772209D01*
X49398905Y22129625D01*
X49259448Y22466303D01*
X49056989Y22769306D01*
X48820000Y23006295D01*
X48820000Y23983705D01*
X49056989Y24220694D01*
X49259448Y24523697D01*
X49277459Y24567180D01*
X49384339Y24367222D01*
X49615523Y24085523D01*
X49897222Y23854339D01*
X50218610Y23682553D01*
X50567337Y23576768D01*
X50839118Y23550000D01*
X52020882Y23550000D01*
X52292663Y23576768D01*
X52641390Y23682553D01*
X52962778Y23854339D01*
X53079341Y23950000D01*
X53263785Y23950000D01*
X53335000Y23942986D01*
X53406215Y23950000D01*
X53406225Y23950000D01*
X53619250Y23970981D01*
X53892576Y24053894D01*
X54144474Y24188536D01*
X54365265Y24369735D01*
X54410671Y24425062D01*
X54675000Y24689392D01*
X54675001Y18102058D01*
X54422943Y17850000D01*
X54087791Y17850000D01*
X53730375Y17778905D01*
X53393697Y17639448D01*
X53090694Y17436989D01*
X52833011Y17179306D01*
X52630552Y16876303D01*
X52491095Y16539625D01*
X52420000Y16182209D01*
X52420000Y15817791D01*
X52491095Y15460375D01*
X52630552Y15123697D01*
X52833011Y14820694D01*
X53070000Y14583705D01*
X53070001Y11417057D01*
X51882944Y10230000D01*
X51547791Y10230000D01*
X51190375Y10158905D01*
X50853697Y10019448D01*
X50550694Y9816989D01*
X50293011Y9559306D01*
X50090552Y9256303D01*
X49951095Y8919625D01*
X49880000Y8562209D01*
X49880000Y8312000D01*
X46666947Y8312000D01*
X46608000Y8317806D01*
X46549053Y8312000D01*
X46549050Y8312000D01*
X46372759Y8294637D01*
X46146558Y8226019D01*
X45938089Y8114591D01*
X45801155Y8002212D01*
X45755366Y7964634D01*
X45717788Y7918845D01*
X44078944Y6280000D01*
X27289057Y6280000D01*
X26930000Y6639056D01*
X26930000Y6963705D01*
X27166989Y7200694D01*
X27369448Y7503697D01*
X27508905Y7840375D01*
X27580000Y8197791D01*
X27580000Y8562209D01*
X27512809Y8900000D01*
X35510000Y8900000D01*
X35510000Y8400000D01*
X35566978Y8021495D01*
X35696704Y7661379D01*
X35894192Y7333491D01*
X36151853Y7050431D01*
X36459786Y6823077D01*
X36806156Y6660167D01*
X37056585Y6592186D01*
X37360000Y6790422D01*
X37360000Y8900000D01*
X37560000Y8900000D01*
X37560000Y6790422D01*
X37863415Y6592186D01*
X38113844Y6660167D01*
X38460214Y6823077D01*
X38768147Y7050431D01*
X39025808Y7333491D01*
X39223296Y7661379D01*
X39353022Y8021495D01*
X39410000Y8400000D01*
X39410000Y8900000D01*
X40590000Y8900000D01*
X40590000Y8400000D01*
X40646978Y8021495D01*
X40776704Y7661379D01*
X40974192Y7333491D01*
X41231853Y7050431D01*
X41539786Y6823077D01*
X41886156Y6660167D01*
X42136585Y6592186D01*
X42440000Y6790422D01*
X42440000Y8900000D01*
X42640000Y8900000D01*
X42640000Y6790422D01*
X42943415Y6592186D01*
X43193844Y6660167D01*
X43540214Y6823077D01*
X43848147Y7050431D01*
X44105808Y7333491D01*
X44303296Y7661379D01*
X44433022Y8021495D01*
X44490000Y8400000D01*
X44490000Y8900000D01*
X42640000Y8900000D01*
X42440000Y8900000D01*
X40590000Y8900000D01*
X39410000Y8900000D01*
X37560000Y8900000D01*
X37360000Y8900000D01*
X35510000Y8900000D01*
X27512809Y8900000D01*
X27508905Y8919625D01*
X27369448Y9256303D01*
X27166989Y9559306D01*
X26930000Y9796295D01*
X26930000Y12962944D01*
X28117056Y14150000D01*
X28452209Y14150000D01*
X28809625Y14221095D01*
X29146303Y14360552D01*
X29449306Y14563011D01*
X29706989Y14820694D01*
X29909448Y15123697D01*
X30048905Y15460375D01*
X30120000Y15817791D01*
X30120000Y16182209D01*
X30048905Y16539625D01*
X30032181Y16580000D01*
X31051053Y16580000D01*
X31110000Y16574194D01*
X31168947Y16580000D01*
X31168950Y16580000D01*
X31345241Y16597363D01*
X31571442Y16665981D01*
X31779910Y16777409D01*
X31962634Y16927366D01*
X32000216Y16973160D01*
X32227056Y17200000D01*
X32562209Y17200000D01*
X32919625Y17271095D01*
X33256303Y17410552D01*
X33559306Y17613011D01*
X33816989Y17870694D01*
X34019448Y18173697D01*
X34158905Y18510375D01*
X34230000Y18867791D01*
X34230000Y19232209D01*
X34158905Y19589625D01*
X34019448Y19926303D01*
X33816989Y20229306D01*
X33559306Y20486989D01*
X33256303Y20689448D01*
X32919625Y20828905D01*
X32562209Y20900000D01*
X32197791Y20900000D01*
X31840375Y20828905D01*
X31503697Y20689448D01*
X31200694Y20486989D01*
X30943011Y20229306D01*
X30740552Y19926303D01*
X30601095Y19589625D01*
X30530000Y19232209D01*
X30530000Y18980000D01*
X27358946Y18980000D01*
X27299999Y18985806D01*
X27241052Y18980000D01*
X27241050Y18980000D01*
X27064759Y18962637D01*
X26838558Y18894019D01*
X26630089Y18782591D01*
X26566969Y18730789D01*
X26447366Y18632634D01*
X26409784Y18586840D01*
X23191160Y15368216D01*
X23145366Y15330634D01*
X23065353Y15233136D01*
X22995409Y15147910D01*
X22995119Y15147367D01*
X22883981Y14939441D01*
X22815363Y14713240D01*
X22808141Y14639910D01*
X22792194Y14478000D01*
X22798000Y14419053D01*
X22798001Y5646957D01*
X22792194Y5588000D01*
X22803611Y5472090D01*
X22815364Y5352759D01*
X22834594Y5289366D01*
X22883981Y5126559D01*
X22995409Y4918090D01*
X23107788Y4781156D01*
X23145367Y4735366D01*
X23191155Y4697789D01*
X24999933Y2889011D01*
X16329045Y2889011D01*
X15877583Y3340473D01*
X16111784Y3496960D01*
X16453040Y3838216D01*
X16721162Y4239490D01*
X16905848Y4685361D01*
X17000000Y5158696D01*
X17000000Y5641304D01*
X16905848Y6114639D01*
X16721162Y6560510D01*
X16453040Y6961784D01*
X16111784Y7303040D01*
X15710510Y7571162D01*
X15264639Y7755848D01*
X14791304Y7850000D01*
X14308696Y7850000D01*
X13835361Y7755848D01*
X13389490Y7571162D01*
X12988216Y7303040D01*
X12646960Y6961784D01*
X12378838Y6560510D01*
X12194152Y6114639D01*
X12155373Y5919683D01*
X8868215Y9206841D01*
X8830633Y9252635D01*
X8647909Y9402592D01*
X8439441Y9514020D01*
X8213240Y9582638D01*
X8036949Y9600001D01*
X8036946Y9600001D01*
X7977999Y9605807D01*
X7919052Y9600001D01*
X7388325Y9600001D01*
X7400000Y9658696D01*
X7400000Y10141304D01*
X7305848Y10614639D01*
X7121162Y11060510D01*
X6853040Y11461784D01*
X6511784Y11803040D01*
X6110510Y12071162D01*
X5664639Y12255848D01*
X5191304Y12350000D01*
X4708696Y12350000D01*
X4235361Y12255848D01*
X3789490Y12071162D01*
X3388216Y11803040D01*
X3046960Y11461784D01*
X2778838Y11060510D01*
X2594152Y10614639D01*
X2500000Y10141304D01*
X2500000Y9658696D01*
X2594152Y9185361D01*
X2778838Y8739490D01*
X3046960Y8338216D01*
X3388216Y7996960D01*
X3789490Y7728838D01*
X4235361Y7544152D01*
X4708696Y7450000D01*
X5191304Y7450000D01*
X5613643Y7534008D01*
X5643153Y7509790D01*
X5643154Y7509789D01*
X5780088Y7397410D01*
X5988557Y7285982D01*
X6214758Y7217364D01*
X6391049Y7200001D01*
X6391052Y7200001D01*
X6449999Y7194195D01*
X6508946Y7200001D01*
X7480943Y7200001D01*
X10280051Y4400893D01*
X10100000Y4310461D01*
X10100000Y2200000D01*
X12210239Y2200000D01*
X12300814Y2380130D01*
X13705944Y975000D01*
X12163282Y975000D01*
X12264966Y1165951D01*
X12402176Y1618286D01*
X12210239Y2000000D01*
X10100000Y2000000D01*
X10100000Y1980000D01*
X9900000Y1980000D01*
X9900000Y2000000D01*
X7789761Y2000000D01*
X7597824Y1618286D01*
X7735034Y1165951D01*
X7836718Y975000D01*
X975000Y975000D01*
X975000Y2581714D01*
X7597824Y2581714D01*
X7789761Y2200000D01*
X9900000Y2200000D01*
X9900000Y4310461D01*
X9518286Y4502179D01*
X9058900Y4362044D01*
X8635680Y4134980D01*
X8264890Y3829713D01*
X7960779Y3457974D01*
X7735034Y3034049D01*
X7597824Y2581714D01*
X975000Y2581714D01*
X975000Y20360000D01*
X3250565Y20360000D01*
X3288215Y19977733D01*
X3399718Y19610157D01*
X3580789Y19271396D01*
X3824470Y18974470D01*
X4121396Y18730789D01*
X4460157Y18549718D01*
X4827733Y18438215D01*
X5114205Y18410000D01*
X6305795Y18410000D01*
X6592267Y18438215D01*
X6959843Y18549718D01*
X7298604Y18730789D01*
X7595530Y18974470D01*
X7747791Y19160000D01*
X17121053Y19160000D01*
X17180000Y19154194D01*
X17238947Y19160000D01*
X17238950Y19160000D01*
X17415241Y19177363D01*
X17641442Y19245981D01*
X17849910Y19357409D01*
X18032634Y19507366D01*
X18070216Y19553160D01*
X20543057Y22026000D01*
X20878209Y22026000D01*
X21235625Y22097095D01*
X21572303Y22236552D01*
X21875306Y22439011D01*
X22132989Y22696694D01*
X22335448Y22999697D01*
X22474905Y23336375D01*
X22546000Y23693791D01*
X22546000Y24058209D01*
X22474905Y24415625D01*
X22335448Y24752303D01*
X22161758Y25012251D01*
X35651092Y25012251D01*
X35740523Y24717426D01*
X35906726Y24395088D01*
X36132620Y24111368D01*
X36409525Y23877170D01*
X36726799Y23701493D01*
X37072250Y23591089D01*
X37360000Y23790202D01*
X37360000Y25300000D01*
X37560000Y25300000D01*
X37560000Y23790202D01*
X37847750Y23591089D01*
X38193201Y23701493D01*
X38510475Y23877170D01*
X38787380Y24111368D01*
X39013274Y24395088D01*
X39179477Y24717426D01*
X39268908Y25012251D01*
X39069396Y25300000D01*
X37560000Y25300000D01*
X37360000Y25300000D01*
X35850604Y25300000D01*
X35651092Y25012251D01*
X22161758Y25012251D01*
X22132989Y25055306D01*
X21875306Y25312989D01*
X21572303Y25515448D01*
X21235625Y25654905D01*
X20878209Y25726000D01*
X20513791Y25726000D01*
X20156375Y25654905D01*
X19819697Y25515448D01*
X19516694Y25312989D01*
X19259011Y25055306D01*
X19056552Y24752303D01*
X18917095Y24415625D01*
X18846000Y24058209D01*
X18846000Y23723057D01*
X16682944Y21560000D01*
X8111744Y21560000D01*
X8146255Y21673767D01*
X8164597Y21860000D01*
X8160000Y22522500D01*
X7922500Y22760000D01*
X5810000Y22760000D01*
X5810000Y22740000D01*
X5610000Y22740000D01*
X5610000Y22760000D01*
X3497500Y22760000D01*
X3260000Y22522500D01*
X3255403Y21860000D01*
X3273745Y21673767D01*
X3328067Y21494692D01*
X3416282Y21329654D01*
X3477402Y21255179D01*
X3399718Y21109843D01*
X3288215Y20742267D01*
X3250565Y20360000D01*
X975000Y20360000D01*
X975000Y23860000D01*
X3255403Y23860000D01*
X3260000Y23197500D01*
X3497500Y22960000D01*
X5610000Y22960000D01*
X5610000Y24572500D01*
X5810000Y24572500D01*
X5810000Y22960000D01*
X7922500Y22960000D01*
X8160000Y23197500D01*
X8164597Y23860000D01*
X8146255Y24046233D01*
X8091933Y24225308D01*
X8003718Y24390346D01*
X7885002Y24535002D01*
X7740346Y24653718D01*
X7575308Y24741933D01*
X7396233Y24796255D01*
X7210000Y24814597D01*
X6047500Y24810000D01*
X5810000Y24572500D01*
X5610000Y24572500D01*
X5372500Y24810000D01*
X4210000Y24814597D01*
X4023767Y24796255D01*
X3844692Y24741933D01*
X3679654Y24653718D01*
X3534998Y24535002D01*
X3416282Y24390346D01*
X3328067Y24225308D01*
X3273745Y24046233D01*
X3255403Y23860000D01*
X975000Y23860000D01*
X975000Y25787749D01*
X35651092Y25787749D01*
X35850604Y25500000D01*
X37360000Y25500000D01*
X37360000Y27009798D01*
X37560000Y27009798D01*
X37560000Y25500000D01*
X39069396Y25500000D01*
X39268908Y25787749D01*
X39179477Y26082574D01*
X39013274Y26404912D01*
X38787380Y26688632D01*
X38510475Y26922830D01*
X38193201Y27098507D01*
X37847750Y27208911D01*
X37560000Y27009798D01*
X37360000Y27009798D01*
X37072250Y27208911D01*
X36726799Y27098507D01*
X36409525Y26922830D01*
X36132620Y26688632D01*
X35906726Y26404912D01*
X35740523Y26082574D01*
X35651092Y25787749D01*
X975000Y25787749D01*
X975000Y44797750D01*
X35651089Y44797750D01*
X35850202Y44510000D01*
X37360000Y44510000D01*
X37360000Y46019396D01*
X37560000Y46019396D01*
X37560000Y44510000D01*
X39069798Y44510000D01*
X39268911Y44797750D01*
X39256128Y44837750D01*
X52161089Y44837750D01*
X52360202Y44550000D01*
X53870000Y44550000D01*
X53870000Y46059396D01*
X54070000Y46059396D01*
X54070000Y44550000D01*
X55579798Y44550000D01*
X55778911Y44837750D01*
X55971089Y44837750D01*
X56170202Y44550000D01*
X57680000Y44550000D01*
X57680000Y46059396D01*
X57880000Y46059396D01*
X57880000Y44550000D01*
X59389798Y44550000D01*
X59588911Y44837750D01*
X59478507Y45183201D01*
X59302830Y45500475D01*
X59068632Y45777380D01*
X58784912Y46003274D01*
X58462574Y46169477D01*
X58167749Y46258908D01*
X57880000Y46059396D01*
X57680000Y46059396D01*
X57392251Y46258908D01*
X57097426Y46169477D01*
X56775088Y46003274D01*
X56491368Y45777380D01*
X56257170Y45500475D01*
X56081493Y45183201D01*
X55971089Y44837750D01*
X55778911Y44837750D01*
X55668507Y45183201D01*
X55492830Y45500475D01*
X55258632Y45777380D01*
X54974912Y46003274D01*
X54652574Y46169477D01*
X54357749Y46258908D01*
X54070000Y46059396D01*
X53870000Y46059396D01*
X53582251Y46258908D01*
X53287426Y46169477D01*
X52965088Y46003274D01*
X52681368Y45777380D01*
X52447170Y45500475D01*
X52271493Y45183201D01*
X52161089Y44837750D01*
X39256128Y44837750D01*
X39158507Y45143201D01*
X38982830Y45460475D01*
X38748632Y45737380D01*
X38464912Y45963274D01*
X38142574Y46129477D01*
X37847749Y46218908D01*
X37560000Y46019396D01*
X37360000Y46019396D01*
X37072251Y46218908D01*
X36777426Y46129477D01*
X36455088Y45963274D01*
X36171368Y45737380D01*
X35937170Y45460475D01*
X35761493Y45143201D01*
X35651089Y44797750D01*
X975000Y44797750D01*
X975000Y49025000D01*
X79025001Y49025000D01*
X79025000Y975000D01*
G37*
X79025000Y975000D02*
X72163282Y975000D01*
X72264966Y1165951D01*
X72402176Y1618286D01*
X72210239Y2000000D01*
X70100000Y2000000D01*
X70100000Y1980000D01*
X69900000Y1980000D01*
X69900000Y2000000D01*
X67789761Y2000000D01*
X67597824Y1618286D01*
X67735034Y1165951D01*
X67836718Y975000D01*
X57773442Y975000D01*
X59380156Y2581714D01*
X67597824Y2581714D01*
X67789761Y2200000D01*
X69900000Y2200000D01*
X69900000Y4310461D01*
X70100000Y4310461D01*
X70100000Y2200000D01*
X72210239Y2200000D01*
X72402176Y2581714D01*
X72264966Y3034049D01*
X72039221Y3457974D01*
X71735110Y3829713D01*
X71364320Y4134980D01*
X70941100Y4362044D01*
X70481714Y4502179D01*
X70100000Y4310461D01*
X69900000Y4310461D01*
X69518286Y4502179D01*
X69058900Y4362044D01*
X68635680Y4134980D01*
X68264890Y3829713D01*
X67960779Y3457974D01*
X67735034Y3034049D01*
X67597824Y2581714D01*
X59380156Y2581714D01*
X59412340Y2613898D01*
X59458134Y2651480D01*
X59608091Y2834204D01*
X59719519Y3042672D01*
X59788137Y3268873D01*
X59805500Y3445164D01*
X59811306Y3504114D01*
X59805500Y3563064D01*
X59805500Y9853444D01*
X59877226Y9925170D01*
X60078697Y9790552D01*
X60415375Y9651095D01*
X60772791Y9580000D01*
X61137209Y9580000D01*
X61494625Y9651095D01*
X61831303Y9790552D01*
X62134306Y9993011D01*
X62371295Y10230000D01*
X62517643Y10230000D01*
X62500000Y10141304D01*
X62500000Y9658696D01*
X62594152Y9185361D01*
X62778838Y8739490D01*
X63046960Y8338216D01*
X63388216Y7996960D01*
X63789490Y7728838D01*
X64235361Y7544152D01*
X64708696Y7450000D01*
X65191304Y7450000D01*
X65664639Y7544152D01*
X66110510Y7728838D01*
X66511784Y7996960D01*
X66853040Y8338216D01*
X67121162Y8739490D01*
X67305848Y9185361D01*
X67400000Y9658696D01*
X67400000Y10141304D01*
X67305848Y10614639D01*
X67121162Y11060510D01*
X66977645Y11275299D01*
X72184886Y6068058D01*
X72100000Y5641304D01*
X72100000Y5158696D01*
X72194152Y4685361D01*
X72378838Y4239490D01*
X72646960Y3838216D01*
X72988216Y3496960D01*
X73389490Y3228838D01*
X73835361Y3044152D01*
X74308696Y2950000D01*
X74791304Y2950000D01*
X75264639Y3044152D01*
X75710510Y3228838D01*
X76111784Y3496960D01*
X76453040Y3838216D01*
X76721162Y4239490D01*
X76905848Y4685361D01*
X77000000Y5158696D01*
X77000000Y5641304D01*
X76905848Y6114639D01*
X76721162Y6560510D01*
X76453040Y6961784D01*
X76111784Y7303040D01*
X75710510Y7571162D01*
X75264639Y7755848D01*
X74791304Y7850000D01*
X74308696Y7850000D01*
X73881942Y7765114D01*
X67632216Y14014840D01*
X67594634Y14060634D01*
X67411910Y14210591D01*
X67203442Y14322019D01*
X66977241Y14390637D01*
X66800950Y14408000D01*
X66800947Y14408000D01*
X66742000Y14413806D01*
X66683053Y14408000D01*
X58980000Y14408000D01*
X58980000Y20173705D01*
X59216989Y20410694D01*
X59367500Y20635951D01*
X59518011Y20410694D01*
X59775694Y20153011D01*
X60078697Y19950552D01*
X60415375Y19811095D01*
X60772791Y19740000D01*
X61137209Y19740000D01*
X61494625Y19811095D01*
X61831303Y19950552D01*
X62134306Y20153011D01*
X62391989Y20410694D01*
X62594448Y20713697D01*
X62733905Y21050375D01*
X62805000Y21407791D01*
X62805000Y21772209D01*
X62733905Y22129625D01*
X62594448Y22466303D01*
X62391989Y22769306D01*
X62155000Y23006295D01*
X62155000Y23054596D01*
X62320375Y22986095D01*
X62677791Y22915000D01*
X63042209Y22915000D01*
X63399625Y22986095D01*
X63736303Y23125552D01*
X64039306Y23328011D01*
X64296989Y23585694D01*
X64499448Y23888697D01*
X64638905Y24225375D01*
X64669115Y24377251D01*
X71211092Y24377251D01*
X71300523Y24082426D01*
X71466726Y23760088D01*
X71692620Y23476368D01*
X71969525Y23242170D01*
X72286799Y23066493D01*
X72632250Y22956089D01*
X72920000Y23155202D01*
X72920000Y24665000D01*
X73120000Y24665000D01*
X73120000Y23155202D01*
X73407750Y22956089D01*
X73753201Y23066493D01*
X74070475Y23242170D01*
X74347380Y23476368D01*
X74573274Y23760088D01*
X74739477Y24082426D01*
X74828908Y24377251D01*
X74629396Y24665000D01*
X73120000Y24665000D01*
X72920000Y24665000D01*
X71410604Y24665000D01*
X71211092Y24377251D01*
X64669115Y24377251D01*
X64710000Y24582791D01*
X64710000Y24947209D01*
X64669116Y25152749D01*
X71211092Y25152749D01*
X71410604Y24865000D01*
X72920000Y24865000D01*
X72920000Y26374798D01*
X73120000Y26374798D01*
X73120000Y24865000D01*
X74629396Y24865000D01*
X74828908Y25152749D01*
X74739477Y25447574D01*
X74573274Y25769912D01*
X74347380Y26053632D01*
X74070475Y26287830D01*
X73753201Y26463507D01*
X73407750Y26573911D01*
X73120000Y26374798D01*
X72920000Y26374798D01*
X72632250Y26573911D01*
X72286799Y26463507D01*
X71969525Y26287830D01*
X71692620Y26053632D01*
X71466726Y25769912D01*
X71300523Y25447574D01*
X71211092Y25152749D01*
X64669116Y25152749D01*
X64638905Y25304625D01*
X64499448Y25641303D01*
X64296989Y25944306D01*
X64039306Y26201989D01*
X63814049Y26352500D01*
X64039306Y26503011D01*
X64276295Y26740000D01*
X65293705Y26740000D01*
X65490694Y26543011D01*
X65793697Y26340552D01*
X66130375Y26201095D01*
X66487791Y26130000D01*
X66852209Y26130000D01*
X67209625Y26201095D01*
X67546303Y26340552D01*
X67849306Y26543011D01*
X68106989Y26800694D01*
X68309448Y27103697D01*
X68448905Y27440375D01*
X68520000Y27797791D01*
X68520000Y28162209D01*
X68448905Y28519625D01*
X68309448Y28856303D01*
X68106989Y29159306D01*
X68036295Y29230000D01*
X68086295Y29280000D01*
X71939098Y29280000D01*
X72045830Y29080317D01*
X72201109Y28891109D01*
X72390317Y28735830D01*
X72606183Y28620448D01*
X72840411Y28549395D01*
X73084000Y28525404D01*
X75496000Y28525404D01*
X75739589Y28549395D01*
X75973817Y28620448D01*
X76189683Y28735830D01*
X76378891Y28891109D01*
X76534170Y29080317D01*
X76649552Y29296183D01*
X76720605Y29530411D01*
X76744596Y29774000D01*
X76744596Y31186000D01*
X76720605Y31429589D01*
X76649552Y31663817D01*
X76534170Y31879683D01*
X76460761Y31969132D01*
X76600282Y32230157D01*
X76711785Y32597733D01*
X76749435Y32980000D01*
X76711785Y33362267D01*
X76600282Y33729843D01*
X76419211Y34068604D01*
X76286757Y34230000D01*
X76419211Y34391396D01*
X76600282Y34730157D01*
X76711785Y35097733D01*
X76749435Y35480000D01*
X76711785Y35862267D01*
X76600282Y36229843D01*
X76419211Y36568604D01*
X76175530Y36865530D01*
X75878604Y37109211D01*
X75539843Y37290282D01*
X75172267Y37401785D01*
X74885795Y37430000D01*
X73694205Y37430000D01*
X73407733Y37401785D01*
X73040157Y37290282D01*
X72701396Y37109211D01*
X72404470Y36865530D01*
X72252209Y36680000D01*
X69750000Y36680000D01*
X69750000Y37012209D01*
X69678905Y37369625D01*
X69539448Y37706303D01*
X69336989Y38009306D01*
X69079306Y38266989D01*
X68776303Y38469448D01*
X68439625Y38608905D01*
X68082209Y38680000D01*
X67717791Y38680000D01*
X67360375Y38608905D01*
X67023697Y38469448D01*
X66953569Y38422590D01*
X66830345Y38523718D01*
X66665308Y38611932D01*
X66486232Y38666254D01*
X66300000Y38684596D01*
X64500000Y38684596D01*
X64313768Y38666254D01*
X64134692Y38611932D01*
X63969655Y38523718D01*
X63824999Y38405001D01*
X63706282Y38260345D01*
X63618068Y38095308D01*
X63598257Y38030000D01*
X63006295Y38030000D01*
X62769306Y38266989D01*
X62466303Y38469448D01*
X62129625Y38608905D01*
X61772209Y38680000D01*
X61407791Y38680000D01*
X61050375Y38608905D01*
X60713697Y38469448D01*
X60410694Y38266989D01*
X60153011Y38009306D01*
X59950552Y37706303D01*
X59811095Y37369625D01*
X59740000Y37012209D01*
X59740000Y36647791D01*
X59811095Y36290375D01*
X59950552Y35953697D01*
X60153011Y35650694D01*
X60410694Y35393011D01*
X60713697Y35190552D01*
X61050375Y35051095D01*
X61407791Y34980000D01*
X61772209Y34980000D01*
X62129625Y35051095D01*
X62466303Y35190552D01*
X62769306Y35393011D01*
X63006295Y35630000D01*
X63598257Y35630000D01*
X63618068Y35564692D01*
X63706282Y35399655D01*
X63824999Y35254999D01*
X63969655Y35136282D01*
X64134692Y35048068D01*
X64313768Y34993746D01*
X64500000Y34975404D01*
X66300000Y34975404D01*
X66486232Y34993746D01*
X66665308Y35048068D01*
X66830345Y35136282D01*
X66953569Y35237410D01*
X67023697Y35190552D01*
X67360375Y35051095D01*
X67717791Y34980000D01*
X68052944Y34980000D01*
X68359784Y34673160D01*
X68397366Y34627366D01*
X68580090Y34477409D01*
X68788558Y34365981D01*
X69014759Y34297363D01*
X69191050Y34280000D01*
X69191052Y34280000D01*
X69249999Y34274194D01*
X69308946Y34280000D01*
X72252209Y34280000D01*
X72293243Y34230000D01*
X72160789Y34068604D01*
X71979718Y33729843D01*
X71868215Y33362267D01*
X71830565Y32980000D01*
X71868215Y32597733D01*
X71979718Y32230157D01*
X72119239Y31969132D01*
X72045830Y31879683D01*
X71939098Y31680000D01*
X68086295Y31680000D01*
X67849306Y31916989D01*
X67546303Y32119448D01*
X67209625Y32258905D01*
X66852209Y32330000D01*
X66487791Y32330000D01*
X66130375Y32258905D01*
X65793697Y32119448D01*
X65490694Y31916989D01*
X65253705Y31680000D01*
X64276295Y31680000D01*
X64039306Y31916989D01*
X63736303Y32119448D01*
X63399625Y32258905D01*
X63042209Y32330000D01*
X62677791Y32330000D01*
X62320375Y32258905D01*
X61983697Y32119448D01*
X61680694Y31916989D01*
X61443705Y31680000D01*
X60958426Y31680000D01*
X60900978Y31750000D01*
X61095661Y31987222D01*
X61267447Y32308610D01*
X61373232Y32657337D01*
X61408951Y33020000D01*
X61373232Y33382663D01*
X61267447Y33731390D01*
X61095661Y34052778D01*
X60864477Y34334477D01*
X60582778Y34565661D01*
X60261390Y34737447D01*
X59912663Y34843232D01*
X59640882Y34870000D01*
X58459118Y34870000D01*
X58187337Y34843232D01*
X57960000Y34774270D01*
X57960000Y37579391D01*
X57985178Y37604569D01*
X58319625Y37671095D01*
X58656303Y37810552D01*
X58959306Y38013011D01*
X59216989Y38270694D01*
X59419448Y38573697D01*
X59558905Y38910375D01*
X59630000Y39267791D01*
X59630000Y39632209D01*
X59558905Y39989625D01*
X59419448Y40326303D01*
X59230000Y40609834D01*
X59230000Y41076783D01*
X59237014Y41148000D01*
X59230000Y41219217D01*
X59230000Y41219225D01*
X59209019Y41432250D01*
X59126106Y41705576D01*
X58991464Y41957474D01*
X58810264Y42178265D01*
X58754939Y42223669D01*
X58298005Y42680603D01*
X58462574Y42730523D01*
X58784912Y42896726D01*
X59068632Y43122620D01*
X59302830Y43399525D01*
X59478507Y43716799D01*
X59588911Y44062250D01*
X59389798Y44350000D01*
X57880000Y44350000D01*
X57880000Y44330000D01*
X57680000Y44330000D01*
X57680000Y44350000D01*
X56170202Y44350000D01*
X55971089Y44062250D01*
X56081493Y43716799D01*
X56257170Y43399525D01*
X56290599Y43360000D01*
X55459401Y43360000D01*
X55492830Y43399525D01*
X55668507Y43716799D01*
X55778911Y44062250D01*
X55579798Y44350000D01*
X54070000Y44350000D01*
X54070000Y44330000D01*
X53870000Y44330000D01*
X53870000Y44350000D01*
X52360202Y44350000D01*
X52161089Y44062250D01*
X52271493Y43716799D01*
X52447170Y43399525D01*
X52633523Y43179190D01*
X52525526Y43121464D01*
X52304735Y42940265D01*
X52259326Y42884934D01*
X52099392Y42725000D01*
X40600609Y42725000D01*
X40440671Y42884938D01*
X40395265Y42940265D01*
X40174474Y43121464D01*
X39922576Y43256106D01*
X39649250Y43339019D01*
X39436225Y43360000D01*
X39436215Y43360000D01*
X39365000Y43367014D01*
X39293785Y43360000D01*
X39137587Y43360000D01*
X39045335Y43472409D01*
X39158507Y43676799D01*
X39268911Y44022250D01*
X39069798Y44310000D01*
X37560000Y44310000D01*
X37560000Y44290000D01*
X37360000Y44290000D01*
X37360000Y44310000D01*
X35850202Y44310000D01*
X35651089Y44022250D01*
X35761493Y43676799D01*
X35874665Y43472409D01*
X35782413Y43360000D01*
X19116217Y43360000D01*
X19045000Y43367014D01*
X18973783Y43360000D01*
X18973775Y43360000D01*
X18760750Y43339019D01*
X18487424Y43256106D01*
X18235526Y43121464D01*
X18014735Y42940265D01*
X17969330Y42884939D01*
X17181057Y42096666D01*
X17125735Y42051264D01*
X16944536Y41830473D01*
X16809894Y41578575D01*
X16726981Y41305249D01*
X16706000Y41092224D01*
X16706000Y41092215D01*
X16698986Y41021000D01*
X16706000Y40949785D01*
X16706000Y40729286D01*
X16679772Y40750288D01*
X16340498Y40926417D01*
X16019415Y41023814D01*
X15716000Y40825578D01*
X15716000Y39216000D01*
X15736000Y39216000D01*
X15736000Y39016000D01*
X15716000Y39016000D01*
X15716000Y36676000D01*
X15736000Y36676000D01*
X15736000Y36476000D01*
X15716000Y36476000D01*
X15716000Y36456000D01*
X15516000Y36456000D01*
X15516000Y36476000D01*
X13176000Y36476000D01*
X13176000Y36456000D01*
X12976000Y36456000D01*
X12976000Y36476000D01*
X10636000Y36476000D01*
X10636000Y36456000D01*
X10436000Y36456000D01*
X10436000Y36476000D01*
X10416000Y36476000D01*
X10416000Y36676000D01*
X10436000Y36676000D01*
X10436000Y39016000D01*
X10636000Y39016000D01*
X10636000Y36676000D01*
X12976000Y36676000D01*
X12976000Y39016000D01*
X13176000Y39016000D01*
X13176000Y36676000D01*
X15516000Y36676000D01*
X15516000Y39016000D01*
X13176000Y39016000D01*
X12976000Y39016000D01*
X10636000Y39016000D01*
X10436000Y39016000D01*
X10416000Y39016000D01*
X10416000Y39216000D01*
X10436000Y39216000D01*
X10436000Y40825578D01*
X10636000Y40825578D01*
X10636000Y39216000D01*
X12976000Y39216000D01*
X12976000Y40825578D01*
X13176000Y40825578D01*
X13176000Y39216000D01*
X15516000Y39216000D01*
X15516000Y40825578D01*
X15212585Y41023814D01*
X14891502Y40926417D01*
X14552228Y40750288D01*
X14346000Y40585154D01*
X14139772Y40750288D01*
X13800498Y40926417D01*
X13479415Y41023814D01*
X13176000Y40825578D01*
X12976000Y40825578D01*
X12672585Y41023814D01*
X12351502Y40926417D01*
X12012228Y40750288D01*
X11806000Y40585154D01*
X11599772Y40750288D01*
X11260498Y40926417D01*
X10939415Y41023814D01*
X10636000Y40825578D01*
X10436000Y40825578D01*
X10132585Y41023814D01*
X9811502Y40926417D01*
X9472228Y40750288D01*
X9276308Y40593408D01*
X9239052Y40630664D01*
X8919671Y40844067D01*
X8564794Y40991062D01*
X8188058Y41066000D01*
X7803942Y41066000D01*
X7427206Y40991062D01*
X7072329Y40844067D01*
X6752948Y40630664D01*
X6481336Y40359052D01*
X6267933Y40039671D01*
X6120938Y39684794D01*
X6046000Y39308058D01*
X6046000Y38923942D01*
X6120938Y38547206D01*
X6267933Y38192329D01*
X6270139Y38189028D01*
X6202282Y38106345D01*
X6114068Y37941308D01*
X6059746Y37762232D01*
X6041404Y37576000D01*
X6041404Y35576000D01*
X6059746Y35389768D01*
X6114068Y35210692D01*
X6202282Y35045655D01*
X6320999Y34900999D01*
X6465655Y34782282D01*
X6627309Y34695876D01*
X6649894Y34621425D01*
X6737787Y34456989D01*
X6784536Y34369527D01*
X6908720Y34218209D01*
X6965735Y34148736D01*
X7021057Y34103334D01*
X7809330Y33315061D01*
X7854735Y33259735D01*
X8075526Y33078536D01*
X8327424Y32943894D01*
X8600750Y32860981D01*
X8813775Y32840000D01*
X8813783Y32840000D01*
X8885000Y32832986D01*
X8956217Y32840000D01*
X16539391Y32840000D01*
X18604334Y30775056D01*
X18649735Y30719735D01*
X18705055Y30674335D01*
X18705058Y30674332D01*
X18719830Y30662209D01*
X18870526Y30538536D01*
X19122424Y30403894D01*
X19395750Y30320981D01*
X19608775Y30300000D01*
X19608784Y30300000D01*
X19679999Y30292986D01*
X19751214Y30300000D01*
X21513785Y30300000D01*
X21585000Y30292986D01*
X21656215Y30300000D01*
X21656225Y30300000D01*
X21869250Y30320981D01*
X22142576Y30403894D01*
X22394474Y30538536D01*
X22615265Y30719735D01*
X22660670Y30775061D01*
X24725610Y32840000D01*
X27228785Y32840000D01*
X27300000Y32832986D01*
X27371215Y32840000D01*
X27371225Y32840000D01*
X27584250Y32860981D01*
X27857576Y32943894D01*
X28109474Y33078536D01*
X28330265Y33259735D01*
X28375671Y33315062D01*
X28490608Y33430000D01*
X35605403Y33430000D01*
X35623745Y33243767D01*
X35678067Y33064692D01*
X35766282Y32899654D01*
X35884998Y32754998D01*
X36029654Y32636282D01*
X36194692Y32548067D01*
X36373767Y32493745D01*
X36560000Y32475403D01*
X37122500Y32480000D01*
X37360000Y32717500D01*
X37360000Y34230000D01*
X37560000Y34230000D01*
X37560000Y32717500D01*
X37797500Y32480000D01*
X38360000Y32475403D01*
X38546233Y32493745D01*
X38725308Y32548067D01*
X38890346Y32636282D01*
X39035002Y32754998D01*
X39153718Y32899654D01*
X39241933Y33064692D01*
X39296255Y33243767D01*
X39314597Y33430000D01*
X39310000Y33992500D01*
X39072500Y34230000D01*
X37560000Y34230000D01*
X37360000Y34230000D01*
X35847500Y34230000D01*
X35610000Y33992500D01*
X35605403Y33430000D01*
X28490608Y33430000D01*
X28909934Y33849326D01*
X28965265Y33894735D01*
X29146464Y34115526D01*
X29281106Y34367424D01*
X29364019Y34640750D01*
X29385000Y34853775D01*
X29392015Y34925000D01*
X29385000Y34996225D01*
X29385000Y37499391D01*
X29805610Y37920000D01*
X35963339Y37920000D01*
X35820552Y37706303D01*
X35681095Y37369625D01*
X35610000Y37012209D01*
X35610000Y36647791D01*
X35681095Y36290375D01*
X35820552Y35953697D01*
X35867409Y35883570D01*
X35766282Y35760346D01*
X35678067Y35595308D01*
X35623745Y35416233D01*
X35605403Y35230000D01*
X35610000Y34667500D01*
X35847500Y34430000D01*
X37360000Y34430000D01*
X37360000Y34450000D01*
X37560000Y34450000D01*
X37560000Y34430000D01*
X39072500Y34430000D01*
X39310000Y34667500D01*
X39314597Y35230000D01*
X39296255Y35416233D01*
X39241933Y35595308D01*
X39153718Y35760346D01*
X39052591Y35883570D01*
X39099448Y35953697D01*
X39238905Y36290375D01*
X39310000Y36647791D01*
X39310000Y37012209D01*
X39238905Y37369625D01*
X39099448Y37706303D01*
X38956661Y37920000D01*
X49933339Y37920000D01*
X49790552Y37706303D01*
X49651095Y37369625D01*
X49580000Y37012209D01*
X49580000Y36647791D01*
X49651095Y36290375D01*
X49790552Y35953697D01*
X49993011Y35650694D01*
X50230001Y35413704D01*
X50230000Y34874596D01*
X50030000Y34874596D01*
X49843768Y34856254D01*
X49664692Y34801932D01*
X49499655Y34713718D01*
X49354999Y34595001D01*
X49236282Y34450345D01*
X49148068Y34285308D01*
X49128257Y34220000D01*
X49036295Y34220000D01*
X48799306Y34456989D01*
X48496303Y34659448D01*
X48159625Y34798905D01*
X47802209Y34870000D01*
X47437791Y34870000D01*
X47080375Y34798905D01*
X46743697Y34659448D01*
X46440694Y34456989D01*
X46203705Y34220000D01*
X45226295Y34220000D01*
X44989306Y34456989D01*
X44686303Y34659448D01*
X44349625Y34798905D01*
X43992209Y34870000D01*
X43627791Y34870000D01*
X43270375Y34798905D01*
X42933697Y34659448D01*
X42630694Y34456989D01*
X42373011Y34199306D01*
X42170552Y33896303D01*
X42031095Y33559625D01*
X41960000Y33202209D01*
X41960000Y32837791D01*
X42031095Y32480375D01*
X42170552Y32143697D01*
X42373011Y31840694D01*
X42443705Y31770000D01*
X42373011Y31699306D01*
X42170552Y31396303D01*
X42031095Y31059625D01*
X41960000Y30702209D01*
X41960000Y30337791D01*
X42031095Y29980375D01*
X42170552Y29643697D01*
X42373011Y29340694D01*
X42610001Y29103704D01*
X42610000Y24627056D01*
X39193155Y21210211D01*
X39147367Y21172634D01*
X39109790Y21126846D01*
X39109788Y21126844D01*
X38997409Y20989910D01*
X38885981Y20781441D01*
X38817364Y20555240D01*
X38794194Y20320000D01*
X38800001Y20261043D01*
X38800000Y16117790D01*
X38730001Y16060343D01*
X38548604Y16209211D01*
X38209843Y16390282D01*
X37842267Y16501785D01*
X37460000Y16539435D01*
X37077734Y16501785D01*
X36710158Y16390282D01*
X36371397Y16209211D01*
X36074471Y15965530D01*
X35830790Y15668604D01*
X35649718Y15329843D01*
X35538215Y14962267D01*
X35510000Y14675795D01*
X35510000Y13484206D01*
X35538215Y13197734D01*
X35649718Y12830158D01*
X35830789Y12491396D01*
X36074470Y12194470D01*
X36254830Y12046453D01*
X36254194Y12040000D01*
X36260000Y11981053D01*
X36260000Y11981051D01*
X36277363Y11804760D01*
X36335773Y11612209D01*
X36345981Y11578559D01*
X36457409Y11370090D01*
X36527353Y11284864D01*
X36572449Y11229913D01*
X36459786Y11176923D01*
X36151853Y10949569D01*
X35894192Y10666509D01*
X35696704Y10338621D01*
X35566978Y9978505D01*
X35510000Y9600000D01*
X35510000Y9100000D01*
X37360000Y9100000D01*
X37360000Y9120000D01*
X37560000Y9120000D01*
X37560000Y9100000D01*
X39410000Y9100000D01*
X39410000Y9600000D01*
X39353022Y9978505D01*
X39237209Y10300000D01*
X40762791Y10300000D01*
X40646978Y9978505D01*
X40590000Y9600000D01*
X40590000Y9100000D01*
X42440000Y9100000D01*
X42440000Y9120000D01*
X42640000Y9120000D01*
X42640000Y9100000D01*
X44490000Y9100000D01*
X44490000Y9600000D01*
X44433022Y9978505D01*
X44303296Y10338621D01*
X44229150Y10461725D01*
X44295910Y10497409D01*
X44478634Y10647366D01*
X44516216Y10693160D01*
X47467057Y13644000D01*
X47802209Y13644000D01*
X48159625Y13715095D01*
X48496303Y13854552D01*
X48799306Y14057011D01*
X49056989Y14314694D01*
X49259448Y14617697D01*
X49398905Y14954375D01*
X49470000Y15311791D01*
X49470000Y15676209D01*
X49398905Y16033625D01*
X49259448Y16370303D01*
X49056989Y16673306D01*
X48799306Y16930989D01*
X48496303Y17133448D01*
X48159625Y17272905D01*
X47802209Y17344000D01*
X47437791Y17344000D01*
X47080375Y17272905D01*
X46743697Y17133448D01*
X46440694Y16930989D01*
X46183011Y16673306D01*
X45980552Y16370303D01*
X45841095Y16033625D01*
X45770000Y15676209D01*
X45770000Y15341057D01*
X44490000Y14061056D01*
X44490000Y14675794D01*
X44461785Y14962266D01*
X44350282Y15329843D01*
X44169211Y15668604D01*
X43925530Y15965530D01*
X43740000Y16117791D01*
X43740000Y17633705D01*
X43976989Y17870694D01*
X44179448Y18173697D01*
X44318905Y18510375D01*
X44390000Y18867791D01*
X44390000Y19232209D01*
X44318905Y19589625D01*
X44179448Y19926303D01*
X43976989Y20229306D01*
X43719306Y20486989D01*
X43416303Y20689448D01*
X43079625Y20828905D01*
X42722209Y20900000D01*
X42357791Y20900000D01*
X42257009Y20879953D01*
X44616841Y23239785D01*
X44662634Y23277366D01*
X44812591Y23460090D01*
X44924019Y23668558D01*
X44992637Y23894759D01*
X45010000Y24071050D01*
X45010000Y24071051D01*
X45015806Y24130000D01*
X45010000Y24188950D01*
X45010000Y29103705D01*
X45226295Y29320000D01*
X46170111Y29320000D01*
X46183011Y29300694D01*
X46440694Y29043011D01*
X46743697Y28840552D01*
X47080375Y28701095D01*
X47279442Y28661498D01*
X46813156Y28195212D01*
X46767367Y28157634D01*
X46729790Y28111846D01*
X46729788Y28111844D01*
X46617409Y27974910D01*
X46505981Y27766441D01*
X46437364Y27540240D01*
X46414194Y27305000D01*
X46420001Y27246043D01*
X46420001Y26816296D01*
X46183011Y26579306D01*
X45980552Y26276303D01*
X45841095Y25939625D01*
X45770000Y25582209D01*
X45770000Y25217791D01*
X45841095Y24860375D01*
X45980552Y24523697D01*
X46183011Y24220694D01*
X46420000Y23983705D01*
X46420001Y23006296D01*
X46183011Y22769306D01*
X45980552Y22466303D01*
X45841095Y22129625D01*
X45770000Y21772209D01*
X45770000Y21407791D01*
X45841095Y21050375D01*
X45980552Y20713697D01*
X46183011Y20410694D01*
X46440694Y20153011D01*
X46743697Y19950552D01*
X47080375Y19811095D01*
X47437791Y19740000D01*
X47802209Y19740000D01*
X48159625Y19811095D01*
X48496303Y19950552D01*
X48799306Y20153011D01*
X49056989Y20410694D01*
X49259448Y20713697D01*
X49398905Y21050375D01*
X49470000Y21407791D01*
X49470000Y21772209D01*
X49398905Y22129625D01*
X49259448Y22466303D01*
X49056989Y22769306D01*
X48820000Y23006295D01*
X48820000Y23983705D01*
X49056989Y24220694D01*
X49259448Y24523697D01*
X49277459Y24567180D01*
X49384339Y24367222D01*
X49615523Y24085523D01*
X49897222Y23854339D01*
X50218610Y23682553D01*
X50567337Y23576768D01*
X50839118Y23550000D01*
X52020882Y23550000D01*
X52292663Y23576768D01*
X52641390Y23682553D01*
X52962778Y23854339D01*
X53079341Y23950000D01*
X53263785Y23950000D01*
X53335000Y23942986D01*
X53406215Y23950000D01*
X53406225Y23950000D01*
X53619250Y23970981D01*
X53892576Y24053894D01*
X54144474Y24188536D01*
X54365265Y24369735D01*
X54410671Y24425062D01*
X54675000Y24689392D01*
X54675001Y18102058D01*
X54422943Y17850000D01*
X54087791Y17850000D01*
X53730375Y17778905D01*
X53393697Y17639448D01*
X53090694Y17436989D01*
X52833011Y17179306D01*
X52630552Y16876303D01*
X52491095Y16539625D01*
X52420000Y16182209D01*
X52420000Y15817791D01*
X52491095Y15460375D01*
X52630552Y15123697D01*
X52833011Y14820694D01*
X53070000Y14583705D01*
X53070001Y11417057D01*
X51882944Y10230000D01*
X51547791Y10230000D01*
X51190375Y10158905D01*
X50853697Y10019448D01*
X50550694Y9816989D01*
X50293011Y9559306D01*
X50090552Y9256303D01*
X49951095Y8919625D01*
X49880000Y8562209D01*
X49880000Y8312000D01*
X46666947Y8312000D01*
X46608000Y8317806D01*
X46549053Y8312000D01*
X46549050Y8312000D01*
X46372759Y8294637D01*
X46146558Y8226019D01*
X45938089Y8114591D01*
X45801155Y8002212D01*
X45755366Y7964634D01*
X45717788Y7918845D01*
X44078944Y6280000D01*
X27289057Y6280000D01*
X26930000Y6639056D01*
X26930000Y6963705D01*
X27166989Y7200694D01*
X27369448Y7503697D01*
X27508905Y7840375D01*
X27580000Y8197791D01*
X27580000Y8562209D01*
X27512809Y8900000D01*
X35510000Y8900000D01*
X35510000Y8400000D01*
X35566978Y8021495D01*
X35696704Y7661379D01*
X35894192Y7333491D01*
X36151853Y7050431D01*
X36459786Y6823077D01*
X36806156Y6660167D01*
X37056585Y6592186D01*
X37360000Y6790422D01*
X37360000Y8900000D01*
X37560000Y8900000D01*
X37560000Y6790422D01*
X37863415Y6592186D01*
X38113844Y6660167D01*
X38460214Y6823077D01*
X38768147Y7050431D01*
X39025808Y7333491D01*
X39223296Y7661379D01*
X39353022Y8021495D01*
X39410000Y8400000D01*
X39410000Y8900000D01*
X40590000Y8900000D01*
X40590000Y8400000D01*
X40646978Y8021495D01*
X40776704Y7661379D01*
X40974192Y7333491D01*
X41231853Y7050431D01*
X41539786Y6823077D01*
X41886156Y6660167D01*
X42136585Y6592186D01*
X42440000Y6790422D01*
X42440000Y8900000D01*
X42640000Y8900000D01*
X42640000Y6790422D01*
X42943415Y6592186D01*
X43193844Y6660167D01*
X43540214Y6823077D01*
X43848147Y7050431D01*
X44105808Y7333491D01*
X44303296Y7661379D01*
X44433022Y8021495D01*
X44490000Y8400000D01*
X44490000Y8900000D01*
X42640000Y8900000D01*
X42440000Y8900000D01*
X40590000Y8900000D01*
X39410000Y8900000D01*
X37560000Y8900000D01*
X37360000Y8900000D01*
X35510000Y8900000D01*
X27512809Y8900000D01*
X27508905Y8919625D01*
X27369448Y9256303D01*
X27166989Y9559306D01*
X26930000Y9796295D01*
X26930000Y12962944D01*
X28117056Y14150000D01*
X28452209Y14150000D01*
X28809625Y14221095D01*
X29146303Y14360552D01*
X29449306Y14563011D01*
X29706989Y14820694D01*
X29909448Y15123697D01*
X30048905Y15460375D01*
X30120000Y15817791D01*
X30120000Y16182209D01*
X30048905Y16539625D01*
X30032181Y16580000D01*
X31051053Y16580000D01*
X31110000Y16574194D01*
X31168947Y16580000D01*
X31168950Y16580000D01*
X31345241Y16597363D01*
X31571442Y16665981D01*
X31779910Y16777409D01*
X31962634Y16927366D01*
X32000216Y16973160D01*
X32227056Y17200000D01*
X32562209Y17200000D01*
X32919625Y17271095D01*
X33256303Y17410552D01*
X33559306Y17613011D01*
X33816989Y17870694D01*
X34019448Y18173697D01*
X34158905Y18510375D01*
X34230000Y18867791D01*
X34230000Y19232209D01*
X34158905Y19589625D01*
X34019448Y19926303D01*
X33816989Y20229306D01*
X33559306Y20486989D01*
X33256303Y20689448D01*
X32919625Y20828905D01*
X32562209Y20900000D01*
X32197791Y20900000D01*
X31840375Y20828905D01*
X31503697Y20689448D01*
X31200694Y20486989D01*
X30943011Y20229306D01*
X30740552Y19926303D01*
X30601095Y19589625D01*
X30530000Y19232209D01*
X30530000Y18980000D01*
X27358946Y18980000D01*
X27299999Y18985806D01*
X27241052Y18980000D01*
X27241050Y18980000D01*
X27064759Y18962637D01*
X26838558Y18894019D01*
X26630089Y18782591D01*
X26566969Y18730789D01*
X26447366Y18632634D01*
X26409784Y18586840D01*
X23191160Y15368216D01*
X23145366Y15330634D01*
X23065353Y15233136D01*
X22995409Y15147910D01*
X22995119Y15147367D01*
X22883981Y14939441D01*
X22815363Y14713240D01*
X22808141Y14639910D01*
X22792194Y14478000D01*
X22798000Y14419053D01*
X22798001Y5646957D01*
X22792194Y5588000D01*
X22803611Y5472090D01*
X22815364Y5352759D01*
X22834594Y5289366D01*
X22883981Y5126559D01*
X22995409Y4918090D01*
X23107788Y4781156D01*
X23145367Y4735366D01*
X23191155Y4697789D01*
X24999933Y2889011D01*
X16329045Y2889011D01*
X15877583Y3340473D01*
X16111784Y3496960D01*
X16453040Y3838216D01*
X16721162Y4239490D01*
X16905848Y4685361D01*
X17000000Y5158696D01*
X17000000Y5641304D01*
X16905848Y6114639D01*
X16721162Y6560510D01*
X16453040Y6961784D01*
X16111784Y7303040D01*
X15710510Y7571162D01*
X15264639Y7755848D01*
X14791304Y7850000D01*
X14308696Y7850000D01*
X13835361Y7755848D01*
X13389490Y7571162D01*
X12988216Y7303040D01*
X12646960Y6961784D01*
X12378838Y6560510D01*
X12194152Y6114639D01*
X12155373Y5919683D01*
X8868215Y9206841D01*
X8830633Y9252635D01*
X8647909Y9402592D01*
X8439441Y9514020D01*
X8213240Y9582638D01*
X8036949Y9600001D01*
X8036946Y9600001D01*
X7977999Y9605807D01*
X7919052Y9600001D01*
X7388325Y9600001D01*
X7400000Y9658696D01*
X7400000Y10141304D01*
X7305848Y10614639D01*
X7121162Y11060510D01*
X6853040Y11461784D01*
X6511784Y11803040D01*
X6110510Y12071162D01*
X5664639Y12255848D01*
X5191304Y12350000D01*
X4708696Y12350000D01*
X4235361Y12255848D01*
X3789490Y12071162D01*
X3388216Y11803040D01*
X3046960Y11461784D01*
X2778838Y11060510D01*
X2594152Y10614639D01*
X2500000Y10141304D01*
X2500000Y9658696D01*
X2594152Y9185361D01*
X2778838Y8739490D01*
X3046960Y8338216D01*
X3388216Y7996960D01*
X3789490Y7728838D01*
X4235361Y7544152D01*
X4708696Y7450000D01*
X5191304Y7450000D01*
X5613643Y7534008D01*
X5643153Y7509790D01*
X5643154Y7509789D01*
X5780088Y7397410D01*
X5988557Y7285982D01*
X6214758Y7217364D01*
X6391049Y7200001D01*
X6391052Y7200001D01*
X6449999Y7194195D01*
X6508946Y7200001D01*
X7480943Y7200001D01*
X10280051Y4400893D01*
X10100000Y4310461D01*
X10100000Y2200000D01*
X12210239Y2200000D01*
X12300814Y2380130D01*
X13705944Y975000D01*
X12163282Y975000D01*
X12264966Y1165951D01*
X12402176Y1618286D01*
X12210239Y2000000D01*
X10100000Y2000000D01*
X10100000Y1980000D01*
X9900000Y1980000D01*
X9900000Y2000000D01*
X7789761Y2000000D01*
X7597824Y1618286D01*
X7735034Y1165951D01*
X7836718Y975000D01*
X975000Y975000D01*
X975000Y2581714D01*
X7597824Y2581714D01*
X7789761Y2200000D01*
X9900000Y2200000D01*
X9900000Y4310461D01*
X9518286Y4502179D01*
X9058900Y4362044D01*
X8635680Y4134980D01*
X8264890Y3829713D01*
X7960779Y3457974D01*
X7735034Y3034049D01*
X7597824Y2581714D01*
X975000Y2581714D01*
X975000Y20360000D01*
X3250565Y20360000D01*
X3288215Y19977733D01*
X3399718Y19610157D01*
X3580789Y19271396D01*
X3824470Y18974470D01*
X4121396Y18730789D01*
X4460157Y18549718D01*
X4827733Y18438215D01*
X5114205Y18410000D01*
X6305795Y18410000D01*
X6592267Y18438215D01*
X6959843Y18549718D01*
X7298604Y18730789D01*
X7595530Y18974470D01*
X7747791Y19160000D01*
X17121053Y19160000D01*
X17180000Y19154194D01*
X17238947Y19160000D01*
X17238950Y19160000D01*
X17415241Y19177363D01*
X17641442Y19245981D01*
X17849910Y19357409D01*
X18032634Y19507366D01*
X18070216Y19553160D01*
X20543057Y22026000D01*
X20878209Y22026000D01*
X21235625Y22097095D01*
X21572303Y22236552D01*
X21875306Y22439011D01*
X22132989Y22696694D01*
X22335448Y22999697D01*
X22474905Y23336375D01*
X22546000Y23693791D01*
X22546000Y24058209D01*
X22474905Y24415625D01*
X22335448Y24752303D01*
X22161758Y25012251D01*
X35651092Y25012251D01*
X35740523Y24717426D01*
X35906726Y24395088D01*
X36132620Y24111368D01*
X36409525Y23877170D01*
X36726799Y23701493D01*
X37072250Y23591089D01*
X37360000Y23790202D01*
X37360000Y25300000D01*
X37560000Y25300000D01*
X37560000Y23790202D01*
X37847750Y23591089D01*
X38193201Y23701493D01*
X38510475Y23877170D01*
X38787380Y24111368D01*
X39013274Y24395088D01*
X39179477Y24717426D01*
X39268908Y25012251D01*
X39069396Y25300000D01*
X37560000Y25300000D01*
X37360000Y25300000D01*
X35850604Y25300000D01*
X35651092Y25012251D01*
X22161758Y25012251D01*
X22132989Y25055306D01*
X21875306Y25312989D01*
X21572303Y25515448D01*
X21235625Y25654905D01*
X20878209Y25726000D01*
X20513791Y25726000D01*
X20156375Y25654905D01*
X19819697Y25515448D01*
X19516694Y25312989D01*
X19259011Y25055306D01*
X19056552Y24752303D01*
X18917095Y24415625D01*
X18846000Y24058209D01*
X18846000Y23723057D01*
X16682944Y21560000D01*
X8111744Y21560000D01*
X8146255Y21673767D01*
X8164597Y21860000D01*
X8160000Y22522500D01*
X7922500Y22760000D01*
X5810000Y22760000D01*
X5810000Y22740000D01*
X5610000Y22740000D01*
X5610000Y22760000D01*
X3497500Y22760000D01*
X3260000Y22522500D01*
X3255403Y21860000D01*
X3273745Y21673767D01*
X3328067Y21494692D01*
X3416282Y21329654D01*
X3477402Y21255179D01*
X3399718Y21109843D01*
X3288215Y20742267D01*
X3250565Y20360000D01*
X975000Y20360000D01*
X975000Y23860000D01*
X3255403Y23860000D01*
X3260000Y23197500D01*
X3497500Y22960000D01*
X5610000Y22960000D01*
X5610000Y24572500D01*
X5810000Y24572500D01*
X5810000Y22960000D01*
X7922500Y22960000D01*
X8160000Y23197500D01*
X8164597Y23860000D01*
X8146255Y24046233D01*
X8091933Y24225308D01*
X8003718Y24390346D01*
X7885002Y24535002D01*
X7740346Y24653718D01*
X7575308Y24741933D01*
X7396233Y24796255D01*
X7210000Y24814597D01*
X6047500Y24810000D01*
X5810000Y24572500D01*
X5610000Y24572500D01*
X5372500Y24810000D01*
X4210000Y24814597D01*
X4023767Y24796255D01*
X3844692Y24741933D01*
X3679654Y24653718D01*
X3534998Y24535002D01*
X3416282Y24390346D01*
X3328067Y24225308D01*
X3273745Y24046233D01*
X3255403Y23860000D01*
X975000Y23860000D01*
X975000Y25787749D01*
X35651092Y25787749D01*
X35850604Y25500000D01*
X37360000Y25500000D01*
X37360000Y27009798D01*
X37560000Y27009798D01*
X37560000Y25500000D01*
X39069396Y25500000D01*
X39268908Y25787749D01*
X39179477Y26082574D01*
X39013274Y26404912D01*
X38787380Y26688632D01*
X38510475Y26922830D01*
X38193201Y27098507D01*
X37847750Y27208911D01*
X37560000Y27009798D01*
X37360000Y27009798D01*
X37072250Y27208911D01*
X36726799Y27098507D01*
X36409525Y26922830D01*
X36132620Y26688632D01*
X35906726Y26404912D01*
X35740523Y26082574D01*
X35651092Y25787749D01*
X975000Y25787749D01*
X975000Y44797750D01*
X35651089Y44797750D01*
X35850202Y44510000D01*
X37360000Y44510000D01*
X37360000Y46019396D01*
X37560000Y46019396D01*
X37560000Y44510000D01*
X39069798Y44510000D01*
X39268911Y44797750D01*
X39256128Y44837750D01*
X52161089Y44837750D01*
X52360202Y44550000D01*
X53870000Y44550000D01*
X53870000Y46059396D01*
X54070000Y46059396D01*
X54070000Y44550000D01*
X55579798Y44550000D01*
X55778911Y44837750D01*
X55971089Y44837750D01*
X56170202Y44550000D01*
X57680000Y44550000D01*
X57680000Y46059396D01*
X57880000Y46059396D01*
X57880000Y44550000D01*
X59389798Y44550000D01*
X59588911Y44837750D01*
X59478507Y45183201D01*
X59302830Y45500475D01*
X59068632Y45777380D01*
X58784912Y46003274D01*
X58462574Y46169477D01*
X58167749Y46258908D01*
X57880000Y46059396D01*
X57680000Y46059396D01*
X57392251Y46258908D01*
X57097426Y46169477D01*
X56775088Y46003274D01*
X56491368Y45777380D01*
X56257170Y45500475D01*
X56081493Y45183201D01*
X55971089Y44837750D01*
X55778911Y44837750D01*
X55668507Y45183201D01*
X55492830Y45500475D01*
X55258632Y45777380D01*
X54974912Y46003274D01*
X54652574Y46169477D01*
X54357749Y46258908D01*
X54070000Y46059396D01*
X53870000Y46059396D01*
X53582251Y46258908D01*
X53287426Y46169477D01*
X52965088Y46003274D01*
X52681368Y45777380D01*
X52447170Y45500475D01*
X52271493Y45183201D01*
X52161089Y44837750D01*
X39256128Y44837750D01*
X39158507Y45143201D01*
X38982830Y45460475D01*
X38748632Y45737380D01*
X38464912Y45963274D01*
X38142574Y46129477D01*
X37847749Y46218908D01*
X37560000Y46019396D01*
X37360000Y46019396D01*
X37072251Y46218908D01*
X36777426Y46129477D01*
X36455088Y45963274D01*
X36171368Y45737380D01*
X35937170Y45460475D01*
X35761493Y45143201D01*
X35651089Y44797750D01*
X975000Y44797750D01*
X975000Y49025000D01*
X79025001Y49025000D01*
X79025000Y975000D01*
M02*
