G04 #@! TF.GenerationSoftware,KiCad,Pcbnew,5.1.6-c6e7f7d~87~ubuntu18.04.1*
G04 #@! TF.CreationDate,2020-07-16T03:00:52+09:00*
G04 #@! TF.ProjectId,frontpanel,66726f6e-7470-4616-9e65-6c2e6b696361,rev?*
G04 #@! TF.SameCoordinates,PX2faf080PY8f0d180*
G04 #@! TF.FileFunction,Legend,Top*
G04 #@! TF.FilePolarity,Positive*
%FSLAX46Y46*%
G04 Gerber Fmt 4.6, Leading zero omitted, Abs format (unit mm)*
G04 Created by KiCad (PCBNEW 5.1.6-c6e7f7d~87~ubuntu18.04.1) date 2020-07-16 03:00:52*
%MOMM*%
%LPD*%
G01*
G04 APERTURE LIST*
%ADD10C,0.150000*%
G04 APERTURE END LIST*
D10*
X27126190Y124595239D02*
X27126190Y126595239D01*
X27126190Y125642858D02*
X28269047Y125642858D01*
X28269047Y124595239D02*
X28269047Y126595239D01*
X29221428Y124595239D02*
X29221428Y126595239D01*
X30554761Y126595239D02*
X30935714Y126595239D01*
X31126190Y126500000D01*
X31316666Y126309524D01*
X31411904Y125928572D01*
X31411904Y125261905D01*
X31316666Y124880953D01*
X31126190Y124690477D01*
X30935714Y124595239D01*
X30554761Y124595239D01*
X30364285Y124690477D01*
X30173809Y124880953D01*
X30078571Y125261905D01*
X30078571Y125928572D01*
X30173809Y126309524D01*
X30364285Y126500000D01*
X30554761Y126595239D01*
X32269047Y124595239D02*
X32269047Y126595239D01*
X33411904Y124595239D02*
X32554761Y125738096D01*
X33411904Y126595239D02*
X32269047Y125452381D01*
X34269047Y124595239D02*
X34269047Y126595239D01*
X36745238Y124595239D02*
X36745238Y126595239D01*
X36745238Y125642858D02*
X37888095Y125642858D01*
X37888095Y124595239D02*
X37888095Y126595239D01*
X38840476Y124595239D02*
X38840476Y126595239D01*
X39983333Y124595239D02*
X39126190Y125738096D01*
X39983333Y126595239D02*
X38840476Y125452381D01*
X40840476Y125357143D02*
X42364285Y125357143D01*
X44173809Y126595239D02*
X43792857Y126595239D01*
X43602380Y126500000D01*
X43507142Y126404762D01*
X43316666Y126119048D01*
X43221428Y125738096D01*
X43221428Y124976191D01*
X43316666Y124785715D01*
X43411904Y124690477D01*
X43602380Y124595239D01*
X43983333Y124595239D01*
X44173809Y124690477D01*
X44269047Y124785715D01*
X44364285Y124976191D01*
X44364285Y125452381D01*
X44269047Y125642858D01*
X44173809Y125738096D01*
X43983333Y125833334D01*
X43602380Y125833334D01*
X43411904Y125738096D01*
X43316666Y125642858D01*
X43221428Y125452381D01*
X46173809Y126595239D02*
X45221428Y126595239D01*
X45126190Y125642858D01*
X45221428Y125738096D01*
X45411904Y125833334D01*
X45888095Y125833334D01*
X46078571Y125738096D01*
X46173809Y125642858D01*
X46269047Y125452381D01*
X46269047Y124976191D01*
X46173809Y124785715D01*
X46078571Y124690477D01*
X45888095Y124595239D01*
X45411904Y124595239D01*
X45221428Y124690477D01*
X45126190Y124785715D01*
X47792857Y125642858D02*
X47126190Y125642858D01*
X47126190Y124595239D02*
X47126190Y126595239D01*
X48078571Y126595239D01*
X50078571Y126595239D02*
X50745238Y124595239D01*
X51411904Y126595239D01*
X52078571Y126595239D02*
X52078571Y124976191D01*
X52173809Y124785715D01*
X52269047Y124690477D01*
X52459523Y124595239D01*
X52840476Y124595239D01*
X53030952Y124690477D01*
X53126190Y124785715D01*
X53221428Y124976191D01*
X53221428Y126595239D01*
X55697619Y124595239D02*
X55697619Y126595239D01*
X56364285Y125166667D01*
X57030952Y126595239D01*
X57030952Y124595239D01*
X57983333Y125642858D02*
X58649999Y125642858D01*
X58935714Y124595239D02*
X57983333Y124595239D01*
X57983333Y126595239D01*
X58935714Y126595239D01*
X59507142Y126595239D02*
X60649999Y126595239D01*
X60078571Y124595239D02*
X60078571Y126595239D01*
X61316666Y125642858D02*
X61983333Y125642858D01*
X62269047Y124595239D02*
X61316666Y124595239D01*
X61316666Y126595239D01*
X62269047Y126595239D01*
X64269047Y124595239D02*
X63602380Y125547620D01*
X63126190Y124595239D02*
X63126190Y126595239D01*
X63888095Y126595239D01*
X64078571Y126500000D01*
X64173809Y126404762D01*
X64269047Y126214286D01*
X64269047Y125928572D01*
X64173809Y125738096D01*
X64078571Y125642858D01*
X63888095Y125547620D01*
X63126190Y125547620D01*
X58078571Y13349762D02*
X58173809Y13445000D01*
X58364285Y13540239D01*
X58840476Y13540239D01*
X59030952Y13445000D01*
X59126190Y13349762D01*
X59221428Y13159286D01*
X59221428Y12968810D01*
X59126190Y12683096D01*
X57983333Y11540239D01*
X59221428Y11540239D01*
X53525000Y12445000D02*
X57150000Y12445000D01*
X34150000Y12445000D02*
X37775000Y12445000D01*
X71983333Y13540239D02*
X73126190Y13540239D01*
X72554761Y11540239D02*
X72554761Y13540239D01*
X73792857Y11540239D02*
X73792857Y13540239D01*
X73792857Y12587858D02*
X74935714Y12587858D01*
X74935714Y11540239D02*
X74935714Y13540239D01*
X77030952Y11540239D02*
X76364285Y12492620D01*
X75888095Y11540239D02*
X75888095Y13540239D01*
X76650000Y13540239D01*
X76840476Y13445000D01*
X76935714Y13349762D01*
X77030952Y13159286D01*
X77030952Y12873572D01*
X76935714Y12683096D01*
X76840476Y12587858D01*
X76650000Y12492620D01*
X75888095Y12492620D01*
X77888095Y13540239D02*
X77888095Y11921191D01*
X77983333Y11730715D01*
X78078571Y11635477D01*
X78269047Y11540239D01*
X78650000Y11540239D01*
X78840476Y11635477D01*
X78935714Y11730715D01*
X79030952Y11921191D01*
X79030952Y13540239D01*
X11792857Y11540239D02*
X11792857Y13540239D01*
X12745238Y11540239D02*
X12745238Y13540239D01*
X13888095Y11540239D01*
X13888095Y13540239D01*
X14840476Y11540239D02*
X14840476Y13540239D01*
X15602380Y13540239D01*
X15792857Y13445000D01*
X15888095Y13349762D01*
X15983333Y13159286D01*
X15983333Y12873572D01*
X15888095Y12683096D01*
X15792857Y12587858D01*
X15602380Y12492620D01*
X14840476Y12492620D01*
X16840476Y13540239D02*
X16840476Y11921191D01*
X16935714Y11730715D01*
X17030952Y11635477D01*
X17221428Y11540239D01*
X17602380Y11540239D01*
X17792857Y11635477D01*
X17888095Y11730715D01*
X17983333Y11921191D01*
X17983333Y13540239D01*
X18650000Y13540239D02*
X19792857Y13540239D01*
X19221428Y11540239D02*
X19221428Y13540239D01*
X33221428Y11540239D02*
X32078571Y11540239D01*
X32650000Y11540239D02*
X32650000Y13540239D01*
X32459523Y13254524D01*
X32269047Y13064048D01*
X32078571Y12968810D01*
X56971428Y17450000D02*
X57685714Y17450000D01*
X56828571Y17021429D02*
X57328571Y18521429D01*
X57828571Y17021429D01*
X58328571Y17021429D02*
X58328571Y18521429D01*
X58685714Y18521429D01*
X58900000Y18450000D01*
X59042857Y18307143D01*
X59114285Y18164286D01*
X59185714Y17878572D01*
X59185714Y17664286D01*
X59114285Y17378572D01*
X59042857Y17235715D01*
X58900000Y17092858D01*
X58685714Y17021429D01*
X58328571Y17021429D01*
X60257142Y18521429D02*
X60257142Y17450000D01*
X60185714Y17235715D01*
X60042857Y17092858D01*
X59828571Y17021429D01*
X59685714Y17021429D01*
X30971428Y17450000D02*
X31685714Y17450000D01*
X30828571Y17021429D02*
X31328571Y18521429D01*
X31828571Y17021429D01*
X32328571Y17021429D02*
X32328571Y18521429D01*
X32685714Y18521429D01*
X32900000Y18450000D01*
X33042857Y18307143D01*
X33114285Y18164286D01*
X33185714Y17878572D01*
X33185714Y17664286D01*
X33114285Y17378572D01*
X33042857Y17235715D01*
X32900000Y17092858D01*
X32685714Y17021429D01*
X32328571Y17021429D01*
X34257142Y18521429D02*
X34257142Y17450000D01*
X34185714Y17235715D01*
X34042857Y17092858D01*
X33828571Y17021429D01*
X33685714Y17021429D01*
X40364285Y13445000D02*
X40173809Y13540239D01*
X39888095Y13540239D01*
X39602380Y13445000D01*
X39411904Y13254524D01*
X39316666Y13064048D01*
X39221428Y12683096D01*
X39221428Y12397381D01*
X39316666Y12016429D01*
X39411904Y11825953D01*
X39602380Y11635477D01*
X39888095Y11540239D01*
X40078571Y11540239D01*
X40364285Y11635477D01*
X40459523Y11730715D01*
X40459523Y12397381D01*
X40078571Y12397381D01*
X41221428Y12111667D02*
X42173809Y12111667D01*
X41030952Y11540239D02*
X41697619Y13540239D01*
X42364285Y11540239D01*
X43030952Y11540239D02*
X43030952Y13540239D01*
X43983333Y11540239D02*
X43983333Y13540239D01*
X45126190Y11540239D01*
X45126190Y13540239D01*
X47507142Y11635477D02*
X47792857Y11540239D01*
X48269047Y11540239D01*
X48459523Y11635477D01*
X48554761Y11730715D01*
X48650000Y11921191D01*
X48650000Y12111667D01*
X48554761Y12302143D01*
X48459523Y12397381D01*
X48269047Y12492620D01*
X47888095Y12587858D01*
X47697619Y12683096D01*
X47602380Y12778334D01*
X47507142Y12968810D01*
X47507142Y13159286D01*
X47602380Y13349762D01*
X47697619Y13445000D01*
X47888095Y13540239D01*
X48364285Y13540239D01*
X48650000Y13445000D01*
X49507142Y12587858D02*
X50173809Y12587858D01*
X50459523Y11540239D02*
X49507142Y11540239D01*
X49507142Y13540239D01*
X50459523Y13540239D01*
X52269047Y11540239D02*
X51316666Y11540239D01*
X51316666Y13540239D01*
M02*
